<svg width="136" height="136" viewBox="0 0 136 136" fill="none" xmlns="http://www.w3.org/2000/svg">
<path fill-rule="evenodd" clip-rule="evenodd" d="M68 16C39.2812 16 16 39.2812 16 68C16 96.7188 39.2812 120 68 120C96.7188 120 120 96.7188 120 68C120 39.2812 96.7188 16 68 16ZM0 68C0 30.4446 30.4446 0 68 0C105.555 0 136 30.4446 136 68C136 105.555 105.555 136 68 136C30.4446 136 0 105.555 0 68Z" fill="#E25D7D" fill-opacity="0.1"/>
<path fill-rule="evenodd" clip-rule="evenodd" d="M60 8C60 3.58172 63.5817 0 68 0C105.555 0 136 30.4446 136 68C136 72.4183 132.418 76 128 76C123.582 76 120 72.4183 120 68C120 39.2812 96.7188 16 68 16C63.5817 16 60 12.4183 60 8Z" fill="#E25D7D"/>
</svg>
