<svg width="136" height="136" viewBox="0 0 136 136" fill="none" xmlns="http://www.w3.org/2000/svg">
<path fill-rule="evenodd" clip-rule="evenodd" d="M68 16C39.2812 16 16 39.2812 16 68C16 96.7188 39.2812 120 68 120C96.7188 120 120 96.7188 120 68C120 39.2812 96.7188 16 68 16ZM0 68C0 30.4446 30.4446 0 68 0C105.555 0 136 30.4446 136 68C136 105.555 105.555 136 68 136C30.4446 136 0 105.555 0 68Z" fill="#E25D7D" fill-opacity="0.1"/>
<path fill-rule="evenodd" clip-rule="evenodd" d="M46.3431 46.3431C49.4673 43.219 54.5327 43.219 57.6569 46.3431L89.6569 78.3431C92.781 81.4673 92.781 86.5327 89.6569 89.6569C86.5327 92.781 81.4673 92.781 78.3431 89.6569L46.3431 57.6569C43.219 54.5327 43.219 49.4673 46.3431 46.3431Z" fill="#E25D7D"/>
<path fill-rule="evenodd" clip-rule="evenodd" d="M89.6569 46.3431C92.781 49.4673 92.781 54.5327 89.6569 57.6569L57.6569 89.6569C54.5327 92.781 49.4673 92.781 46.3431 89.6569C43.219 86.5327 43.219 81.4673 46.3431 78.3431L78.3431 46.3431C81.4673 43.219 86.5327 43.219 89.6569 46.3431Z" fill="#E25D7D"/>
</svg>
