<svg width="136" height="136" viewBox="0 0 136 136" fill="none" xmlns="http://www.w3.org/2000/svg">
<path fill-rule="evenodd" clip-rule="evenodd" d="M68 16C39.2812 16 16 39.2812 16 68C16 96.7188 39.2812 120 68 120C96.7188 120 120 96.7188 120 68C120 39.2812 96.7188 16 68 16ZM0 68C0 30.4446 30.4446 0 68 0C105.555 0 136 30.4446 136 68C136 105.555 105.555 136 68 136C30.4446 136 0 105.555 0 68Z" fill="#B4CE16" fill-opacity="0.1"/>
<path fill-rule="evenodd" clip-rule="evenodd" d="M97.7028 47.3893C100.802 50.5388 100.76 55.604 97.6109 58.7027L66.6109 89.2027C65.0218 90.7661 62.8525 91.5956 60.6258 91.4912C58.399 91.3869 56.3168 90.3582 54.8809 88.6531L38.8809 69.6531C36.0349 66.2735 36.4675 61.2267 39.8471 58.3807C43.2267 55.5347 48.2735 55.9673 51.1195 59.3469L61.5514 71.7348L86.3895 47.2973C89.539 44.1987 94.6041 44.2398 97.7028 47.3893Z" fill="#B4CE16"/>
</svg>
