<svg width="54" height="54" viewBox="0 0 54 54" fill="none" xmlns="http://www.w3.org/2000/svg">
<rect width="54" height="54" rx="8" fill="white"/>
<path d="M31.2093 16.8831H14.1912V32.6754H31.2093V16.8831Z" fill="white"/>
<path d="M31.2093 16.8831V32.6754H14.1912V16.8831H31.2093ZM33.3693 14.7231H12.0312V34.8354H33.3693V14.7231Z" fill="black"/>
<path d="M29.2734 20.2393H16.1271V22.3993H29.2734V20.2393Z" fill="#698CFF"/>
<path d="M29.2734 23.698H16.1271V25.858H29.2734V23.698Z" fill="#698CFF"/>
<path d="M22.2399 27.1594H16.1271V29.3194H22.2399V27.1594Z" fill="#698CFF"/>
<path d="M40.7268 22.6233H23.7087V38.4156H40.7268V22.6233Z" fill="white"/>
<path d="M40.7268 22.6234V38.4157H23.7087V22.6234H40.7268M42.8868 20.4634H21.5487V40.5757H42.8868V20.4634V20.4634Z" fill="black"/>
<path d="M38.7855 25.9849H25.6392V28.1449H38.7855V25.9849Z" fill="#698CFF"/>
<path d="M38.7855 29.4436H25.6392V31.6036H38.7855V29.4436Z" fill="#698CFF"/>
<path d="M31.752 32.9048H25.6392V35.0648H31.752V32.9048Z" fill="#698CFF"/>
</svg>
