<svg width="54" height="54" viewBox="0 0 54 54" fill="none" xmlns="http://www.w3.org/2000/svg">
<rect width="54" height="54" rx="8" fill="white"/>
<path d="M19.1214 23.6143V17.11C19.1214 15.6655 20.2932 14.4937 21.7377 14.4937H32.2596C33.7041 14.4937 34.8759 15.6655 34.8759 17.11V23.6143C34.8759 26.7301 32.346 29.26 29.2302 29.26H24.7617C21.6459 29.26 19.116 26.7301 19.116 23.6143H19.1214Z" fill="white"/>
<path d="M29.2329 30.3372H24.7644C21.0573 30.3372 18.0387 27.3213 18.0387 23.6115V17.1072C18.0387 15.0687 19.6965 13.4109 21.735 13.4109H32.2569C34.2954 13.4109 35.9532 15.0687 35.9532 17.1072V23.6115C35.9532 27.3186 32.9373 30.3372 29.2275 30.3372H29.2329ZM21.7377 15.5736C20.8899 15.5736 20.2014 16.2621 20.2014 17.1099V23.6142C20.2014 26.1306 22.248 28.1799 24.7671 28.1799H29.2356C31.752 28.1799 33.8013 26.1333 33.8013 23.6142V17.1099C33.8013 16.2621 33.1128 15.5736 32.265 15.5736H21.7431H21.7377Z" fill="black"/>
<path d="M24.7671 29.2842H29.8296V42.9354C29.8296 43.8615 29.079 44.6121 28.1529 44.6121H26.4411C25.515 44.6121 24.7644 43.8615 24.7644 42.9354V29.2842H24.7671Z" fill="white"/>
<path d="M28.1529 45.6893H26.4411C24.921 45.6893 23.6844 44.4527 23.6844 42.9326V28.2014H30.9069V42.9326C30.9069 44.4527 29.6703 45.6893 28.1502 45.6893H28.1529ZM25.8471 30.3641V42.9353C25.8471 43.2647 26.1144 43.532 26.4438 43.532H28.1556C28.485 43.532 28.7523 43.2647 28.7523 42.9353V30.3641H25.8498H25.8471Z" fill="black"/>
<path d="M22.8312 24.497C22.086 24.497 21.4812 23.8922 21.4812 23.147V15.3278C21.4812 14.5826 22.086 13.9778 22.8312 13.9778C23.5764 13.9778 24.1812 14.5826 24.1812 15.3278V23.147C24.1812 23.8922 23.5764 24.497 22.8312 24.497Z" fill="#698CFF"/>
<path d="M26.703 20.9952C25.9578 20.9952 25.353 20.3904 25.353 19.6452V15.1173C25.353 14.3721 25.9578 13.7673 26.703 13.7673C27.4482 13.7673 28.053 14.3721 28.053 15.1173V19.6452C28.053 20.3904 27.4482 20.9952 26.703 20.9952Z" fill="#698CFF"/>
<path d="M21.4164 13.3704H32.5809C34.4358 13.3704 35.9397 14.877 35.9397 16.7292V16.8669H18.0549V16.7292C18.0549 14.8743 19.5615 13.3704 21.4137 13.3704H21.4164Z" fill="#698CFF"/>
</svg>
