<svg width="54" height="54" viewBox="0 0 54 54" fill="none" xmlns="http://www.w3.org/2000/svg">
<rect width="54" height="54" rx="8" fill="white"/>
<path d="M37.881 25.5718H19.143C17.2388 25.5718 15.6951 27.1155 15.6951 29.0197V37.8811C15.6951 39.7853 17.2388 41.329 19.143 41.329H37.881C39.7852 41.329 41.3289 39.7853 41.3289 37.8811V29.0197C41.3289 27.1155 39.7852 25.5718 37.881 25.5718Z" fill="white"/>
<path d="M37.881 42.4089H19.143C16.6455 42.4089 14.6151 40.3785 14.6151 37.881V29.0223C14.6151 26.5248 16.6455 24.4944 19.143 24.4944H37.881C40.3785 24.4944 42.4089 26.5248 42.4089 29.0223V37.881C42.4089 40.3785 40.3785 42.4089 37.881 42.4089ZM19.143 26.6517C17.8362 26.6517 16.7751 27.7128 16.7751 29.0196V37.8783C16.7751 39.1851 17.8362 40.2462 19.143 40.2462H37.881C39.1878 40.2462 40.2489 39.1851 40.2489 37.8783V29.0196C40.2489 27.7128 39.1851 26.6517 37.881 26.6517H19.143Z" fill="black"/>
<path d="M29.9535 15.6918L16.7037 28.9416C15.3573 30.2881 15.3573 32.4712 16.7037 33.8177L22.9697 40.0836C24.3162 41.4301 26.4993 41.4301 27.8458 40.0836L41.0955 26.8339C42.442 25.4874 42.442 23.3043 41.0955 21.9578L34.8296 15.6918C33.4831 14.3453 31.3 14.3453 29.9535 15.6918Z" fill="white"/>
<path d="M25.407 42.174C24.1974 42.174 23.0607 41.7015 22.2048 40.8483L15.9408 34.5843C14.175 32.8185 14.175 29.9457 15.9408 28.1799L29.1897 14.931C30.9555 13.1652 33.8283 13.1652 35.5941 14.931L41.8581 21.195C42.714 22.0509 43.1838 23.1876 43.1838 24.3972C43.1838 25.6068 42.7113 26.7435 41.8581 27.5994L28.6092 40.8483C27.7533 41.7042 26.6166 42.174 25.407 42.174V42.174ZM32.3919 15.7653C31.7844 15.7653 31.1796 15.9948 30.7179 16.4592L17.469 29.7081C16.5456 30.6315 16.5456 32.1354 17.469 33.0588L23.733 39.3228C24.1812 39.771 24.7752 40.0167 25.407 40.0167C26.0388 40.0167 26.6355 39.771 27.081 39.3228L40.3299 26.0739C40.7781 25.6257 41.0238 25.0317 41.0238 24.3999C41.0238 23.7681 40.7781 23.1741 40.3299 22.7259L34.0659 16.4619C33.6042 16.0002 32.9967 15.7707 32.3919 15.7707V15.7653Z" fill="#698CFF"/>
<path d="M15.6951 19.143L15.6951 37.881C15.6951 39.7852 17.2388 41.3289 19.143 41.3289H28.0044C29.9086 41.3289 31.4523 39.7852 31.4523 37.881V19.143C31.4523 17.2387 29.9086 15.6951 28.0044 15.6951H19.143C17.2388 15.6951 15.6951 17.2387 15.6951 19.143Z" fill="white"/>
<path d="M28.0017 42.4088H19.143C16.6455 42.4088 14.6151 40.3784 14.6151 37.8809V19.1429C14.6151 16.6454 16.6455 14.615 19.143 14.615H28.0017C30.4992 14.615 32.5296 16.6454 32.5296 19.1429V37.8809C32.5296 40.3784 30.4992 42.4088 28.0017 42.4088V42.4088ZM19.143 16.775C17.8362 16.775 16.7751 17.8388 16.7751 19.1429V37.8809C16.7751 39.1877 17.8362 40.2488 19.143 40.2488H28.0017C29.3085 40.2488 30.3696 39.1877 30.3696 37.8809V19.1429C30.3696 17.8361 29.3085 16.775 28.0017 16.775H19.143V16.775Z" fill="black"/>
<path d="M21.708 15.6951H19.548V41.3289H21.708V15.6951Z" fill="black"/>
</svg>
