<svg width="54" height="54" viewBox="0 0 54 54" fill="none" xmlns="http://www.w3.org/2000/svg">
<rect width="54" height="54" rx="8" fill="white"/>
<path d="M32.1732 23.4065H16.5537V39.026H32.1732V23.4065Z" fill="white"/>
<path d="M32.1732 40.1059H16.5537C15.957 40.1059 15.4737 39.6226 15.4737 39.0259V23.4064C15.4737 22.8097 15.957 22.3264 16.5537 22.3264H32.1732C32.7699 22.3264 33.2532 22.8097 33.2532 23.4064V39.0259C33.2532 39.6226 32.7699 40.1059 32.1732 40.1059ZM17.6337 37.9459H31.0932V24.4864H17.6337V37.9459Z" fill="black"/>
<path fill-rule="evenodd" clip-rule="evenodd" d="M39.9843 31.2174L32.1732 39.0258V23.4063L39.9843 15.5979V31.2174Z" fill="white"/>
<path d="M32.1732 40.1058C32.0328 40.1058 31.8924 40.0788 31.7601 40.0248C31.3551 39.8574 31.0932 39.4632 31.0932 39.0258V23.4063C31.0932 23.1201 31.2066 22.8447 31.4091 22.6422L39.2175 14.8338C39.5253 14.5233 39.9924 14.4315 40.3947 14.5989C40.7997 14.7663 41.0616 15.1605 41.0616 15.5979V31.2174C41.0616 31.5036 40.9482 31.779 40.7457 31.9815L32.9373 39.7899C32.7321 39.9978 32.454 40.1058 32.1732 40.1058V40.1058ZM33.2532 23.8545V36.4176L38.9016 30.7692V18.2061L33.2532 23.8545V23.8545Z" fill="black"/>
<path fill-rule="evenodd" clip-rule="evenodd" d="M32.1867 23.4063H16.5672L24.3648 15.5979H39.9843L32.1867 23.4063Z" fill="white"/>
<path d="M32.1867 24.4862H16.5672C16.1298 24.4862 15.7356 24.2243 15.5682 23.8193C15.4008 23.417 15.4926 22.9526 15.8004 22.6421L23.5953 14.8337C23.7978 14.6312 24.0732 14.5178 24.3594 14.5178H39.9789C40.4163 14.5178 40.8105 14.7797 40.9779 15.1847C41.1453 15.587 41.0535 16.0514 40.7457 16.3619L32.9508 24.1703C32.7483 24.3728 32.4729 24.4862 32.1867 24.4862V24.4862ZM19.1727 22.3262H31.7385L37.3788 16.6778H24.813L19.1727 22.3262V22.3262Z" fill="black"/>
<path fill-rule="evenodd" clip-rule="evenodd" d="M25.4853 28.0152H24.867H24.2676H23.5845H23.0526V23.4062H25.4853V28.0152Z" fill="#698CFF"/>
<path d="M25.488 35.929H23.0526V40.1329H25.488V35.929Z" fill="#698CFF"/>
<path fill-rule="evenodd" clip-rule="evenodd" d="M25.4853 23.4064H23.0526L31.9761 14.4937H34.4088L25.4853 23.4064Z" fill="#698CFF"/>
</svg>
