<svg width="54" height="54" viewBox="0 0 54 54" fill="none" xmlns="http://www.w3.org/2000/svg">
<rect width="54" height="54" rx="8" fill="white"/>
<path d="M29.6865 21.781V30.0781H34.7517V21.781H29.6865Z" fill="white"/>
<path d="M35.8317 31.158H28.6065V20.7009H35.8317V31.158ZM30.7665 28.998H33.6717V22.8609H30.7665V28.998Z" fill="#698CFF"/>
<path d="M34.7517 18.0467V30.0752H39.8169V18.0467H34.7517Z" fill="white"/>
<path d="M40.8969 31.158H33.6717V16.9695H40.8969V31.158ZM35.8317 28.998H38.7369V19.1295H35.8317V28.998Z" fill="#698CFF"/>
<path d="M39.8169 42.1036H14.1831V23.2927L39.8169 29.6512V42.1036Z" fill="white"/>
<path d="M40.8969 43.1837H13.1031V21.9131L40.8969 28.8062V43.1837ZM15.2631 41.0237H38.7369V30.4964L15.2631 24.6752V41.0237Z" fill="black"/>
</svg>
