<svg width="54" height="54" viewBox="0 0 54 54" fill="none" xmlns="http://www.w3.org/2000/svg">
<rect width="54" height="54" rx="8" fill="white"/>
<path d="M36.5067 17.21H17.7687C15.8652 17.21 14.3208 18.7544 14.3208 20.6579V31.2419C14.3208 33.1454 15.8652 34.6898 17.7687 34.6898H23.3874L25.2639 37.9379L25.9524 39.1313C26.4789 40.0439 27.7992 40.0439 28.3257 39.1313L29.0142 37.9379L30.8907 34.6898H36.5094C38.4129 34.6898 39.9573 33.1454 39.9573 31.2419V20.6579C39.9573 18.7544 38.4129 17.21 36.5094 17.21H36.5067Z" fill="white"/>
<path d="M27.1377 40.8943C26.2521 40.8943 25.4583 40.4353 25.0155 39.6685L22.7637 35.767H17.7687C15.2712 35.767 13.2408 33.7366 13.2408 31.2391V20.6551C13.2408 18.1576 15.2712 16.1272 17.7687 16.1272H36.5067C39.0042 16.1272 41.0346 18.1576 41.0346 20.6551V31.2391C41.0346 33.7366 39.0042 35.767 36.5067 35.767H31.5117L29.2599 39.6685C28.8171 40.4353 28.0233 40.8943 27.1377 40.8943ZM17.7687 18.2872C16.4619 18.2872 15.4008 19.351 15.4008 20.6551V31.2391C15.4008 32.5459 16.4646 33.607 17.7687 33.607H24.0111L26.8866 38.5885C26.9568 38.7073 27.0621 38.7343 27.1377 38.7343C27.2133 38.7343 27.3186 38.71 27.3888 38.5885L30.2643 33.607H36.5067C37.8135 33.607 38.8746 32.5459 38.8746 31.2391V20.6551C38.8746 19.3483 37.8108 18.2872 36.5067 18.2872H17.7687V18.2872Z" fill="black"/>
<path d="M27.1377 30.5965L26.4654 29.9863C24.0813 27.8236 22.5045 26.398 22.5045 24.6457C22.5045 23.2201 23.625 22.0996 25.0506 22.0996C25.8552 22.0996 26.6301 22.4749 27.135 23.0689C27.6399 22.4749 28.4121 22.0996 29.2194 22.0996C30.645 22.0996 31.7655 23.2201 31.7655 24.6457C31.7655 26.3953 30.1914 27.8236 27.8046 29.9917L27.1323 30.5992L27.1377 30.5965Z" fill="#698CFF"/>
</svg>
