<svg width="54" height="54" viewBox="0 0 54 54" fill="none" xmlns="http://www.w3.org/2000/svg">
<rect width="54" height="54" rx="8" fill="white"/>
<path d="M36.369 20.6335H17.631C15.7268 20.6335 14.1831 22.1772 14.1831 24.0814V32.9428C14.1831 34.8471 15.7268 36.3907 17.631 36.3907H36.369C38.2732 36.3907 39.8169 34.8471 39.8169 32.9428V24.0814C39.8169 22.1772 38.2732 20.6335 36.369 20.6335Z" fill="white"/>
<path d="M36.369 37.4707H17.631C15.1335 37.4707 13.1031 35.4403 13.1031 32.9428V24.0841C13.1031 21.5866 15.1335 19.5562 17.631 19.5562H36.369C38.8665 19.5562 40.8969 21.5866 40.8969 24.0841V32.9428C40.8969 35.4403 38.8665 37.4707 36.369 37.4707ZM17.631 21.7135C16.3242 21.7135 15.2631 22.7746 15.2631 24.0814V32.9401C15.2631 34.2469 16.3269 35.308 17.631 35.308H36.369C37.6758 35.308 38.7369 34.2442 38.7369 32.9401V24.0814C38.7369 22.7746 37.6731 21.7135 36.369 21.7135H17.631V21.7135Z" fill="black"/>
<path d="M27 23.293C24.1191 23.293 21.7809 25.6312 21.7809 28.5121C21.7809 31.393 24.1191 33.7312 27 33.7312C29.8809 33.7312 32.2191 31.393 32.2191 28.5121C32.2191 25.6312 29.8809 23.293 27 23.293ZM25.9551 30.8584V26.1631L29.0871 28.5121L25.9551 30.8611V30.8584Z" fill="#698CFF"/>
</svg>
