<svg width="28" height="28" viewBox="0 0 28 28" fill="none" xmlns="http://www.w3.org/2000/svg">
<path d="M22.1667 4.33333H21V2H18.6667V4.33333H9.33333V2H7V4.33333H5.83333C4.55 4.33333 3.5 5.38333 3.5 6.66667V23C3.5 24.2833 4.55 25.3333 5.83333 25.3333H22.1667C23.45 25.3333 24.5 24.2833 24.5 23V6.66667C24.5 5.38333 23.45 4.33333 22.1667 4.33333ZM22.1667 23H5.83333V11.3333H22.1667V23ZM5.83333 9V6.66667H22.1667V9H5.83333Z" fill="#B4CE16"/>
<path d="M19.2387 14.2855L12.3204 21.2038L8.62207 17.5055L9.85874 16.2688L12.3204 18.7305L18.0021 13.0488L19.2387 14.2855Z" fill="#B4CE16"/>
</svg>
