<svg width="40" height="40" viewBox="0 0 40 40" fill="none" xmlns="http://www.w3.org/2000/svg">
<circle cx="20" cy="20" r="20" fill="#B4CE16"/>
<path d="M27.7778 11H26.6667V8.75H24.4444V11H15.5556V8.75H13.3333V11H12.2222C11 11 10 12.0125 10 13.25V29C10 30.2375 11 31.25 12.2222 31.25H27.7778C29 31.25 30 30.2375 30 29V13.25C30 12.0125 29 11 27.7778 11ZM27.7778 29H12.2222V17.75H27.7778V29ZM12.2222 15.5V13.25H27.7778V15.5H12.2222ZM18.4 27.2675L24.9889 20.5962L23.8111 19.4038L18.4 24.8825L16.0556 22.5087L14.8778 23.7013L18.4 27.2675Z" fill="white"/>
</svg>
