<svg width="16" height="16" viewBox="0 0 16 16" fill="none" xmlns="http://www.w3.org/2000/svg">
<path d="M3.33333 6.66634H12.6667V7.99967H14V3.99967C14 3.26634 13.4 2.66634 12.6667 2.66634H12V1.33301H10.6667V2.66634H5.33333V1.33301H4V2.66634H3.33333C2.59333 2.66634 2.00667 3.26634 2.00667 3.99967L2 13.333C2 14.0663 2.59333 14.6663 3.33333 14.6663H8V13.333H3.33333V6.66634ZM3.33333 3.99967H12.6667V5.33301H3.33333V3.99967ZM15.2267 10.853L14.7533 11.3263L13.34 9.91301L13.8133 9.43967C14.0733 9.17967 14.4933 9.17967 14.7533 9.43967L15.2267 9.91301C15.4867 10.173 15.4867 10.593 15.2267 10.853ZM12.8667 10.3863L14.28 11.7997L10.7467 15.333H9.33333V13.9197L12.8667 10.3863Z" fill="white"/>
</svg>
