<?xml version="1.0" encoding="UTF-8"?><svg id="Layer_1" xmlns="http://www.w3.org/2000/svg" viewBox="0 0 194.04 24"><defs><style>.cls-1{fill:#698cff;}.cls-2{fill:#212121;}</style></defs><path class="cls-2" d="M1.81,4.57c-.4,0-.7-.14-.89-.42-.19-.28-.29-.61-.29-.99s.1-.71,.29-.99,.49-.42,.89-.42h7.64c.83,0,1.41,.16,1.73,.47,.32,.31,.48,.88,.48,1.7v3.21c0,.8-.04,1.52-.13,2.17s-.25,1.24-.5,1.79-.57,1.07-.99,1.57c-.42,.5-.96,1.01-1.63,1.54-.67,.53-1.48,1.1-2.43,1.7-.95,.6-2.07,1.27-3.35,2.02-.37,.21-.74,.25-1.12,.13-.38-.12-.68-.36-.89-.7-.21-.33-.3-.7-.27-1.12,.03-.42,.24-.74,.64-.96,1.2-.68,2.22-1.27,3.05-1.77s1.53-.96,2.07-1.36,.97-.77,1.28-1.1c.3-.33,.53-.67,.69-1.02l-6.83,.44c-.4,.04-.7-.08-.9-.35-.2-.27-.32-.6-.35-1-.04-.35,.03-.68,.21-.99s.46-.48,.86-.5l7.36-.29v-2.14c0-.4-.2-.6-.6-.6H1.81Zm14.3,6.1h-5.77v-2.82h5.77V1.41c0-.49,.17-.84,.51-1.07s.73-.34,1.16-.34,.8,.11,1.13,.34,.51,.58,.51,1.07V21.39c0,.49-.17,.84-.51,1.07s-.72,.34-1.13,.34-.82-.11-1.16-.34-.51-.58-.51-1.07V10.67Z"/><path class="cls-2" d="M25.52,4.41c-.4,0-.7-.14-.89-.42-.19-.28-.29-.61-.29-.99s.1-.71,.29-.99c.19-.28,.49-.42,.89-.42h7.77c.83,0,1.41,.16,1.73,.47s.48,.88,.48,1.7v4.85c0,.82-.16,1.38-.48,1.7s-.9,.47-1.73,.47h-5.04c-.4,0-.6,.2-.6,.6v2.58c0,.4,.2,.6,.6,.6,1.63,0,3.14-.04,4.51-.12,1.37-.08,2.7-.2,3.97-.38,.4-.05,.72,.04,.95,.29,.23,.24,.37,.55,.4,.91,.03,.4-.02,.75-.16,1.06-.14,.3-.4,.48-.78,.53-.54,.07-1.14,.13-1.8,.2-.66,.06-1.41,.12-2.26,.17-.84,.05-1.8,.09-2.87,.12-1.07,.03-2.28,.04-3.64,.04-.83,0-1.41-.16-1.73-.47-.32-.31-.48-.88-.48-1.7v-4.98c0-.82,.16-1.38,.48-1.7,.32-.31,.9-.47,1.73-.47h5.03c.4,0,.6-.2,.6-.6v-2.45c0-.4-.2-.6-.6-.6h-6.1Zm17.48,16.98c0,.49-.17,.84-.51,1.07-.34,.23-.73,.34-1.19,.34s-.82-.11-1.16-.34c-.34-.23-.51-.58-.51-1.07V1.41c0-.49,.17-.84,.51-1.07,.34-.23,.73-.34,1.16-.34s.85,.11,1.19,.34c.34,.23,.51,.58,.51,1.07V21.39Z"/><path class="cls-2" d="M47.38,9.26c0-2.59,.52-4.56,1.55-5.9,1.03-1.34,2.59-2.01,4.66-2.01s3.62,.67,4.66,2.01c1.03,1.34,1.55,3.3,1.55,5.9s-.52,4.56-1.55,5.9c-1.03,1.34-2.59,2.01-4.66,2.01s-3.62-.67-4.66-2.01c-1.03-1.34-1.55-3.3-1.55-5.9Zm9.21,0c0-1.65-.22-2.9-.67-3.74-.44-.84-1.22-1.27-2.34-1.27s-1.89,.42-2.33,1.27c-.44,.84-.67,2.09-.67,3.74s.22,2.9,.67,3.74,1.22,1.27,2.33,1.27,1.89-.42,2.34-1.27,.67-2.09,.67-3.74Zm6.99,1.41h-5.76v-2.82h5.76V1.41c0-.49,.17-.84,.51-1.07,.34-.23,.73-.34,1.16-.34s.8,.11,1.13,.34c.34,.23,.51,.58,.51,1.07V21.39c0,.49-.17,.84-.51,1.07-.34,.23-.72,.34-1.13,.34s-.82-.11-1.16-.34c-.34-.23-.51-.58-.51-1.07V10.67Z"/><path class="cls-2" d="M75.27,4.59c-.4,0-.6,.2-.6,.6V13.38c0,.4,.2,.6,.6,.6,1.48,0,2.89-.04,4.24-.12,1.35-.08,2.66-.2,3.93-.38,.4-.05,.72,.04,.95,.29,.23,.24,.37,.56,.4,.94,.04,.4-.02,.75-.16,1.06-.14,.3-.4,.48-.78,.53-.54,.07-1.13,.13-1.79,.2-.65,.06-1.4,.12-2.23,.17-.84,.05-1.77,.09-2.8,.12-1.03,.03-2.2,.04-3.48,.04-.84,0-1.41-.16-1.73-.47-.32-.31-.48-.88-.48-1.7V3.91c0-.82,.16-1.38,.48-1.7,.32-.31,.9-.47,1.73-.47h8.24c.4,0,.7,.14,.89,.42,.19,.28,.29,.62,.29,1.02s-.1,.71-.29,.99c-.19,.28-.49,.42-.89,.42h-6.52Zm16.54,3.1c.42,0,.72,.14,.91,.42s.29,.62,.29,1.02-.1,.74-.29,1.03-.5,.43-.91,.43h-2.45v10.8c0,.49-.17,.84-.51,1.07-.34,.23-.73,.34-1.16,.34s-.82-.11-1.16-.34c-.34-.23-.51-.58-.51-1.07V1.41c0-.49,.17-.84,.51-1.07,.34-.23,.73-.34,1.16-.34s.82,.11,1.16,.34c.34,.23,.51,.58,.51,1.07V7.7h2.45Z"/><path class="cls-2" d="M95.02,9.26c0-2.59,.52-4.56,1.56-5.91s2.62-2.02,4.72-2.02,3.68,.67,4.72,2.02,1.56,3.32,1.56,5.91-.52,4.56-1.56,5.91-2.62,2.02-4.72,2.02-3.68-.67-4.72-2.02-1.56-3.32-1.56-5.91Zm9.36,0c0-1.65-.23-2.9-.68-3.76-.45-.85-1.25-1.28-2.4-1.28s-1.95,.43-2.4,1.28c-.45,.85-.68,2.1-.68,3.76s.23,2.91,.68,3.76c.45,.85,1.25,1.28,2.4,1.28s1.95-.43,2.4-1.28c.45-.85,.68-2.1,.68-3.76Zm9.84,12.13c0,.49-.17,.84-.51,1.07-.34,.23-.73,.34-1.19,.34s-.82-.11-1.16-.34c-.34-.23-.51-.58-.51-1.07V1.41c0-.49,.17-.84,.51-1.07,.34-.23,.72-.34,1.16-.34s.85,.11,1.19,.34c.34,.23,.51,.58,.51,1.07V21.39Z"/><path class="cls-2" d="M119.15,20.66c-.4,0-.7-.14-.89-.42-.19-.28-.29-.61-.29-.99s.1-.74,.29-1.02c.19-.28,.49-.42,.89-.42h19.72c.4,0,.7,.14,.89,.42,.19,.28,.29,.62,.29,1.02s-.1,.71-.29,.99-.49,.42-.89,.42h-19.72Zm3.86-6.76c-.84,0-1.41-.16-1.74-.47s-.48-.88-.48-1.7V2.61c0-.47,.17-.82,.52-1.06s.73-.35,1.15-.35,.8,.12,1.15,.35c.35,.23,.52,.59,.52,1.06v2.58h9.76V2.61c0-.47,.17-.82,.52-1.06s.73-.35,1.15-.35,.8,.12,1.15,.35,.52,.59,.52,1.06V11.74c0,.82-.16,1.38-.48,1.7s-.9,.47-1.73,.47h-12Zm10.28-2.79c.4,0,.6-.2,.6-.6v-2.53h-9.76v2.53c0,.4,.2,.6,.6,.6h8.56Z"/><path class="cls-1" d="M158.75,11.27c0,.82-.16,1.38-.48,1.7s-.9,.47-1.73,.47h-5.61c-.84,0-1.41-.16-1.74-.47s-.48-.88-.48-1.7V3.81c0-.82,.16-1.38,.48-1.7s.9-.47,1.74-.47h5.61c.83,0,1.41,.16,1.73,.47s.48,.88,.48,1.7v7.46Zm-3.08-6.24c0-.4-.2-.6-.6-.6h-2.69c-.4,0-.6,.2-.6,.6v5.01c0,.4,.2,.6,.6,.6h2.69c.4,0,.6-.2,.6-.6V5.03Zm-.84,18.97c-.83,0-1.41-.16-1.73-.47-.32-.31-.48-.88-.48-1.7v-4.93c0-.49,.17-.84,.51-1.07,.34-.23,.73-.34,1.19-.34s.82,.11,1.16,.34c.34,.23,.51,.58,.51,1.07v3.65c0,.4,.2,.6,.6,.6h11.79c.4,0,.7,.14,.89,.42,.19,.28,.29,.62,.29,1.02s-.1,.71-.29,.99c-.19,.28-.49,.42-.89,.42h-13.54Zm2.43-17.87h3.89V1.43c0-.45,.16-.78,.47-.99,.31-.21,.67-.31,1.07-.31s.73,.1,1.04,.31c.31,.21,.47,.54,.47,.99V15.42c0,.45-.16,.78-.47,.99-.31,.21-.66,.31-1.04,.31-.4,0-.76-.1-1.07-.31s-.47-.54-.47-.99v-6.5h-3.89v-2.79Zm8.63-4.83c0-.45,.16-.78,.47-.99,.31-.21,.67-.31,1.07-.31s.76,.1,1.07,.31c.31,.21,.47,.54,.47,.99v15.18c0,.45-.16,.78-.47,.99-.31,.21-.67,.31-1.07,.31s-.76-.11-1.07-.31c-.31-.21-.47-.54-.47-.99V1.3Z"/><path class="cls-1" d="M173.14,20.66c-.4,0-.7-.14-.89-.42-.19-.28-.29-.61-.29-.99s.1-.71,.29-.99c.19-.28,.49-.42,.89-.42h8.19v-4.93h3.34v4.93h8.19c.4,0,.7,.14,.89,.42s.29,.61,.29,.99-.1,.71-.29,.99-.49,.42-.89,.42h-19.72Zm4.91-14.19h11.66c.4,0,.7,.14,.89,.42,.19,.28,.29,.59,.29,.94s-.1,.66-.29,.94c-.19,.28-.49,.42-.89,.42h-11.66v1.72c0,.4,.2,.6,.6,.6h11.71c.4,0,.7,.14,.89,.42s.29,.61,.29,.99-.1,.71-.29,.99-.49,.42-.89,.42h-13.36c-.84,0-1.41-.16-1.74-.47s-.48-.88-.48-1.7V3.52c0-.82,.16-1.38,.48-1.7s.9-.47,1.74-.47h12.96c.4,0,.7,.14,.89,.42,.19,.28,.29,.61,.29,.99s-.1,.71-.29,.99c-.19,.28-.49,.42-.89,.42h-11.32c-.4,0-.6,.2-.6,.6v1.7Z"/></svg>