<svg width="152" height="25" viewBox="0 0 152 25" fill="none" xmlns="http://www.w3.org/2000/svg">
<path d="M2.612 4.976C2.18267 4.976 1.86533 4.82667 1.66 4.528C1.45467 4.22933 1.352 3.87467 1.352 3.464C1.352 3.05333 1.45467 2.69867 1.66 2.4C1.86533 2.10133 2.18267 1.952 2.612 1.952H10.816C11.712 1.952 12.328 2.12 12.664 2.456C13.0187 2.792 13.196 3.39867 13.196 4.276V7.72C13.196 8.57867 13.1493 9.35333 13.056 10.044C12.9627 10.7347 12.7853 11.3787 12.524 11.976C12.2627 12.5547 11.908 13.1147 11.46 13.656C11.012 14.1787 10.424 14.7293 9.696 15.308C8.98667 15.868 8.11867 16.4747 7.092 17.128C6.084 17.7627 4.88933 18.4813 3.508 19.284C3.116 19.508 2.71467 19.5547 2.304 19.424C1.89333 19.2933 1.576 19.0413 1.352 18.668C1.128 18.3133 1.02533 17.912 1.044 17.464C1.08133 17.016 1.31467 16.6707 1.744 16.428C3.032 15.7 4.124 15.0653 5.02 14.524C5.916 13.9827 6.65333 13.4973 7.232 13.068C7.82933 12.6387 8.28667 12.2467 8.604 11.892C8.94 11.5373 9.192 11.1733 9.36 10.8L2.024 11.276C1.59467 11.3133 1.268 11.192 1.044 10.912C0.838667 10.6133 0.717333 10.2493 0.68 9.82C0.642667 9.44667 0.717333 9.092 0.904 8.756C1.09067 8.42 1.39867 8.24267 1.828 8.224L9.724 7.916V5.62C9.724 5.19067 9.50933 4.976 9.08 4.976H2.612ZM17.956 11.528H11.768V8.504H17.956V1.588C17.956 1.06533 18.1333 0.682666 18.488 0.439999C18.8613 0.197332 19.2813 0.0759985 19.748 0.0759985C20.196 0.0759985 20.5973 0.197332 20.952 0.439999C21.3253 0.682666 21.512 1.06533 21.512 1.588V23.036C21.512 23.5587 21.3253 23.9413 20.952 24.184C20.5973 24.4267 20.196 24.548 19.748 24.548C19.2813 24.548 18.8613 24.4267 18.488 24.184C18.1333 23.9413 17.956 23.5587 17.956 23.036V11.528ZM28.0684 4.808C27.639 4.808 27.3217 4.65867 27.1164 4.36C26.911 4.06133 26.8084 3.70667 26.8084 3.296C26.8084 2.88533 26.911 2.53067 27.1164 2.232C27.3217 1.93333 27.639 1.784 28.0684 1.784H36.4124C37.3084 1.784 37.9244 1.952 38.2604 2.288C38.615 2.624 38.7924 3.23067 38.7924 4.108V9.316C38.7924 10.1933 38.615 10.8 38.2604 11.136C37.9244 11.472 37.3084 11.64 36.4124 11.64H31.0084C30.579 11.64 30.3644 11.8547 30.3644 12.284V15.056C30.3644 15.4853 30.579 15.7 31.0084 15.7C32.763 15.7 34.3777 15.6627 35.8524 15.588C37.327 15.4947 38.7457 15.3547 40.1084 15.168C40.5377 15.112 40.8737 15.2147 41.1164 15.476C41.3777 15.7373 41.527 16.064 41.5644 16.456C41.6017 16.8853 41.5457 17.268 41.3964 17.604C41.247 17.9213 40.967 18.108 40.5564 18.164C39.9777 18.2387 39.3337 18.3133 38.6244 18.388C37.915 18.444 37.103 18.5 36.1884 18.556C35.2924 18.612 34.2657 18.6587 33.1084 18.696C31.9697 18.7147 30.6724 18.724 29.2164 18.724C28.3204 18.724 27.695 18.556 27.3404 18.22C27.0044 17.884 26.8364 17.2773 26.8364 16.4V11.052C26.8364 10.1747 27.0044 9.568 27.3404 9.232C27.695 8.896 28.3204 8.728 29.2164 8.728H34.6204C35.0497 8.728 35.2644 8.51333 35.2644 8.084V5.452C35.2644 5.02267 35.0497 4.808 34.6204 4.808H28.0684ZM46.8284 23.036C46.8284 23.5587 46.6417 23.9413 46.2684 24.184C45.9137 24.4267 45.4937 24.548 45.0084 24.548C44.5417 24.548 44.1217 24.4267 43.7484 24.184C43.3937 23.9413 43.2164 23.5587 43.2164 23.036V1.588C43.2164 1.06533 43.3937 0.682666 43.7484 0.439999C44.1217 0.197332 44.5417 0.0759985 45.0084 0.0759985C45.4937 0.0759985 45.9137 0.197332 46.2684 0.439999C46.6417 0.682666 46.8284 1.06533 46.8284 1.588V23.036ZM51.5368 10.016C51.5368 7.23467 52.0874 5.12533 53.1888 3.688C54.3088 2.25067 55.9794 1.532 58.2007 1.532C60.4221 1.532 62.0834 2.25067 63.1848 3.688C64.3048 5.12533 64.8648 7.23467 64.8648 10.016C64.8648 12.7973 64.3048 14.9067 63.1848 16.344C62.0834 17.7813 60.4221 18.5 58.2007 18.5C55.9794 18.5 54.3088 17.7813 53.1888 16.344C52.0874 14.9067 51.5368 12.7973 51.5368 10.016ZM61.4208 10.016C61.4208 8.24267 61.1781 6.908 60.6928 6.012C60.2261 5.09733 59.3954 4.64 58.2007 4.64C57.0061 4.64 56.1661 5.09733 55.6808 6.012C55.2141 6.908 54.9808 8.24267 54.9808 10.016C54.9808 11.7893 55.2141 13.1333 55.6808 14.048C56.1661 14.944 57.0061 15.392 58.2007 15.392C59.3954 15.392 60.2261 14.944 60.6928 14.048C61.1781 13.1333 61.4208 11.7893 61.4208 10.016ZM68.9248 11.528H62.7368V8.504H68.9248V1.588C68.9248 1.06533 69.1021 0.682666 69.4568 0.439999C69.8301 0.197332 70.2501 0.0759985 70.7168 0.0759985C71.1648 0.0759985 71.5661 0.197332 71.9208 0.439999C72.2941 0.682666 72.4808 1.06533 72.4808 1.588V23.036C72.4808 23.5587 72.2941 23.9413 71.9208 24.184C71.5661 24.4267 71.1648 24.548 70.7168 24.548C70.2501 24.548 69.8301 24.4267 69.4568 24.184C69.1021 23.9413 68.9248 23.5587 68.9248 23.036V11.528ZM81.4731 5.004C81.0438 5.004 80.8291 5.21867 80.8291 5.648V14.44C80.8291 14.8693 81.0438 15.084 81.4731 15.084C83.0598 15.084 84.5718 15.0467 86.0091 14.972C87.4651 14.8787 88.8745 14.7387 90.2371 14.552C90.6665 14.496 91.0025 14.5987 91.2451 14.86C91.5065 15.1213 91.6558 15.4573 91.6931 15.868C91.7305 16.2973 91.6745 16.68 91.5251 17.016C91.3758 17.3333 91.0958 17.52 90.6851 17.576C90.1065 17.6507 89.4625 17.7253 88.7531 17.8C88.0625 17.856 87.2691 17.912 86.3731 17.968C85.4771 18.024 84.4691 18.0707 83.3491 18.108C82.2478 18.1267 81.0065 18.136 79.6251 18.136C78.7291 18.136 78.1038 17.968 77.7491 17.632C77.4131 17.296 77.2451 16.6893 77.2451 15.812V4.276C77.2451 3.39867 77.4131 2.792 77.7491 2.456C78.1038 2.12 78.7291 1.952 79.6251 1.952H88.4731C88.9025 1.952 89.2198 2.10133 89.4251 2.4C89.6305 2.69867 89.7331 3.06267 89.7331 3.492C89.7331 3.90267 89.6305 4.25733 89.4251 4.556C89.2198 4.85467 88.9025 5.004 88.4731 5.004H81.4731ZM99.2251 8.336C99.6731 8.336 99.9998 8.48533 100.205 8.784C100.41 9.08267 100.513 9.44667 100.513 9.876C100.513 10.3053 100.41 10.6787 100.205 10.996C99.9998 11.2947 99.6731 11.444 99.2251 11.444H96.5931V23.036C96.5931 23.5587 96.4065 23.9413 96.0331 24.184C95.6785 24.4267 95.2678 24.548 94.8011 24.548C94.3345 24.548 93.9145 24.4267 93.5411 24.184C93.1865 23.9413 93.0091 23.5587 93.0091 23.036V1.588C93.0091 1.06533 93.1865 0.682666 93.5411 0.439999C93.9145 0.197332 94.3345 0.0759985 94.8011 0.0759985C95.2678 0.0759985 95.6785 0.197332 96.0331 0.439999C96.4065 0.682666 96.5931 1.06533 96.5931 1.588V8.336H99.2251ZM102.674 10.016C102.674 7.23467 103.234 5.12533 104.354 3.688C105.474 2.232 107.163 1.504 109.422 1.504C111.68 1.504 113.37 2.232 114.49 3.688C115.61 5.12533 116.17 7.23467 116.17 10.016C116.17 12.7973 115.61 14.916 114.49 16.372C113.37 17.8093 111.68 18.528 109.422 18.528C107.163 18.528 105.474 17.8093 104.354 16.372C103.234 14.916 102.674 12.7973 102.674 10.016ZM112.726 10.016C112.726 8.24267 112.483 6.89867 111.998 5.984C111.512 5.06933 110.654 4.612 109.422 4.612C108.19 4.612 107.331 5.06933 106.846 5.984C106.36 6.89867 106.118 8.24267 106.118 10.016C106.118 11.7893 106.36 13.1333 106.846 14.048C107.331 14.9627 108.19 15.42 109.422 15.42C110.654 15.42 111.512 14.9627 111.998 14.048C112.483 13.1333 112.726 11.7893 112.726 10.016ZM123.282 23.036C123.282 23.5587 123.095 23.9413 122.722 24.184C122.367 24.4267 121.947 24.548 121.462 24.548C120.995 24.548 120.575 24.4267 120.202 24.184C119.847 23.9413 119.67 23.5587 119.67 23.036V1.588C119.67 1.06533 119.847 0.682666 120.202 0.439999C120.575 0.197332 120.995 0.0759985 121.462 0.0759985C121.947 0.0759985 122.367 0.197332 122.722 0.439999C123.095 0.682666 123.282 1.06533 123.282 1.588V23.036ZM132.722 15C131.826 15 131.201 14.832 130.846 14.496C130.51 14.16 130.342 13.5533 130.342 12.676V2.876C130.342 2.372 130.529 1.99867 130.902 1.756C131.275 1.49467 131.686 1.364 132.134 1.364C132.582 1.364 132.993 1.49467 133.366 1.756C133.739 1.99867 133.926 2.372 133.926 2.876V5.648H144.398V2.876C144.398 2.372 144.585 1.99867 144.958 1.756C145.331 1.49467 145.742 1.364 146.19 1.364C146.638 1.364 147.049 1.49467 147.422 1.756C147.795 1.99867 147.982 2.372 147.982 2.876V12.676C147.982 13.5533 147.805 14.16 147.45 14.496C147.114 14.832 146.498 15 145.602 15H132.722ZM143.754 12.004C144.183 12.004 144.398 11.7893 144.398 11.36V8.644H133.926V11.36C133.926 11.7893 134.141 12.004 134.57 12.004H143.754ZM128.578 22.252C128.149 22.252 127.831 22.1027 127.626 21.804C127.421 21.5053 127.318 21.1507 127.318 20.74C127.318 20.3107 127.421 19.9467 127.626 19.648C127.831 19.3493 128.149 19.2 128.578 19.2H149.746C150.175 19.2 150.493 19.3493 150.698 19.648C150.903 19.9467 151.006 20.3107 151.006 20.74C151.006 21.1507 150.903 21.5053 150.698 21.804C150.493 22.1027 150.175 22.252 149.746 22.252H128.578Z" fill="#212121"/>
</svg>
