<svg width="209" height="26" viewBox="0 0 209 26" fill="none" xmlns="http://www.w3.org/2000/svg">
<path d="M2.612 4.976C2.18267 4.976 1.86533 4.82667 1.66 4.528C1.45467 4.22933 1.352 3.87467 1.352 3.464C1.352 3.05333 1.45467 2.69867 1.66 2.4C1.86533 2.10133 2.18267 1.952 2.612 1.952H10.816C11.712 1.952 12.328 2.12 12.664 2.456C13.0187 2.792 13.196 3.39867 13.196 4.276V7.72C13.196 8.57867 13.1493 9.35333 13.056 10.044C12.9627 10.7347 12.7853 11.3787 12.524 11.976C12.2627 12.5547 11.908 13.1147 11.46 13.656C11.012 14.1787 10.424 14.7293 9.696 15.308C8.98667 15.868 8.11867 16.4747 7.092 17.128C6.084 17.7627 4.88933 18.4813 3.508 19.284C3.116 19.508 2.71467 19.5547 2.304 19.424C1.89333 19.2933 1.576 19.0413 1.352 18.668C1.128 18.3133 1.02533 17.912 1.044 17.464C1.08133 17.016 1.31467 16.6707 1.744 16.428C3.032 15.7 4.124 15.0653 5.02 14.524C5.916 13.9827 6.65333 13.4973 7.232 13.068C7.82933 12.6387 8.28667 12.2467 8.604 11.892C8.94 11.5373 9.192 11.1733 9.36 10.8L2.024 11.276C1.59467 11.3133 1.268 11.192 1.044 10.912C0.838667 10.6133 0.717333 10.2493 0.68 9.82C0.642667 9.44667 0.717333 9.092 0.904 8.756C1.09067 8.42 1.39867 8.24267 1.828 8.224L9.724 7.916V5.62C9.724 5.19067 9.50933 4.976 9.08 4.976H2.612ZM17.956 11.528H11.768V8.504H17.956V1.588C17.956 1.06533 18.1333 0.682666 18.488 0.439999C18.8613 0.197332 19.2813 0.0759985 19.748 0.0759985C20.196 0.0759985 20.5973 0.197332 20.952 0.439999C21.3253 0.682666 21.512 1.06533 21.512 1.588V23.036C21.512 23.5587 21.3253 23.9413 20.952 24.184C20.5973 24.4267 20.196 24.548 19.748 24.548C19.2813 24.548 18.8613 24.4267 18.488 24.184C18.1333 23.9413 17.956 23.5587 17.956 23.036V11.528ZM28.0684 4.808C27.639 4.808 27.3217 4.65867 27.1164 4.36C26.911 4.06133 26.8084 3.70667 26.8084 3.296C26.8084 2.88533 26.911 2.53067 27.1164 2.232C27.3217 1.93333 27.639 1.784 28.0684 1.784H36.4124C37.3084 1.784 37.9244 1.952 38.2604 2.288C38.615 2.624 38.7924 3.23067 38.7924 4.108V9.316C38.7924 10.1933 38.615 10.8 38.2604 11.136C37.9244 11.472 37.3084 11.64 36.4124 11.64H31.0084C30.579 11.64 30.3644 11.8547 30.3644 12.284V15.056C30.3644 15.4853 30.579 15.7 31.0084 15.7C32.763 15.7 34.3777 15.6627 35.8524 15.588C37.327 15.4947 38.7457 15.3547 40.1084 15.168C40.5377 15.112 40.8737 15.2147 41.1164 15.476C41.3777 15.7373 41.527 16.064 41.5644 16.456C41.6017 16.8853 41.5457 17.268 41.3964 17.604C41.247 17.9213 40.967 18.108 40.5564 18.164C39.9777 18.2387 39.3337 18.3133 38.6244 18.388C37.915 18.444 37.103 18.5 36.1884 18.556C35.2924 18.612 34.2657 18.6587 33.1084 18.696C31.9697 18.7147 30.6724 18.724 29.2164 18.724C28.3204 18.724 27.695 18.556 27.3404 18.22C27.0044 17.884 26.8364 17.2773 26.8364 16.4V11.052C26.8364 10.1747 27.0044 9.568 27.3404 9.232C27.695 8.896 28.3204 8.728 29.2164 8.728H34.6204C35.0497 8.728 35.2644 8.51333 35.2644 8.084V5.452C35.2644 5.02267 35.0497 4.808 34.6204 4.808H28.0684ZM46.8284 23.036C46.8284 23.5587 46.6417 23.9413 46.2684 24.184C45.9137 24.4267 45.4937 24.548 45.0084 24.548C44.5417 24.548 44.1217 24.4267 43.7484 24.184C43.3937 23.9413 43.2164 23.5587 43.2164 23.036V1.588C43.2164 1.06533 43.3937 0.682666 43.7484 0.439999C44.1217 0.197332 44.5417 0.0759985 45.0084 0.0759985C45.4937 0.0759985 45.9137 0.197332 46.2684 0.439999C46.6417 0.682666 46.8284 1.06533 46.8284 1.588V23.036ZM51.5368 10.016C51.5368 7.23467 52.0874 5.12533 53.1888 3.688C54.3088 2.25067 55.9794 1.532 58.2007 1.532C60.4221 1.532 62.0834 2.25067 63.1848 3.688C64.3048 5.12533 64.8648 7.23467 64.8648 10.016C64.8648 12.7973 64.3048 14.9067 63.1848 16.344C62.0834 17.7813 60.4221 18.5 58.2007 18.5C55.9794 18.5 54.3088 17.7813 53.1888 16.344C52.0874 14.9067 51.5368 12.7973 51.5368 10.016ZM61.4208 10.016C61.4208 8.24267 61.1781 6.908 60.6928 6.012C60.2261 5.09733 59.3954 4.64 58.2007 4.64C57.0061 4.64 56.1661 5.09733 55.6808 6.012C55.2141 6.908 54.9808 8.24267 54.9808 10.016C54.9808 11.7893 55.2141 13.1333 55.6808 14.048C56.1661 14.944 57.0061 15.392 58.2007 15.392C59.3954 15.392 60.2261 14.944 60.6928 14.048C61.1781 13.1333 61.4208 11.7893 61.4208 10.016ZM68.9248 11.528H62.7368V8.504H68.9248V1.588C68.9248 1.06533 69.1021 0.682666 69.4568 0.439999C69.8301 0.197332 70.2501 0.0759985 70.7168 0.0759985C71.1648 0.0759985 71.5661 0.197332 71.9208 0.439999C72.2941 0.682666 72.4808 1.06533 72.4808 1.588V23.036C72.4808 23.5587 72.2941 23.9413 71.9208 24.184C71.5661 24.4267 71.1648 24.548 70.7168 24.548C70.2501 24.548 69.8301 24.4267 69.4568 24.184C69.1021 23.9413 68.9248 23.5587 68.9248 23.036V11.528ZM81.4731 5.004C81.0438 5.004 80.8291 5.21867 80.8291 5.648V14.44C80.8291 14.8693 81.0438 15.084 81.4731 15.084C83.0598 15.084 84.5718 15.0467 86.0091 14.972C87.4651 14.8787 88.8745 14.7387 90.2371 14.552C90.6665 14.496 91.0025 14.5987 91.2451 14.86C91.5065 15.1213 91.6558 15.4573 91.6931 15.868C91.7305 16.2973 91.6745 16.68 91.5251 17.016C91.3758 17.3333 91.0958 17.52 90.6851 17.576C90.1065 17.6507 89.4625 17.7253 88.7531 17.8C88.0625 17.856 87.2691 17.912 86.3731 17.968C85.4771 18.024 84.4691 18.0707 83.3491 18.108C82.2478 18.1267 81.0065 18.136 79.6251 18.136C78.7291 18.136 78.1038 17.968 77.7491 17.632C77.4131 17.296 77.2451 16.6893 77.2451 15.812V4.276C77.2451 3.39867 77.4131 2.792 77.7491 2.456C78.1038 2.12 78.7291 1.952 79.6251 1.952H88.4731C88.9025 1.952 89.2198 2.10133 89.4251 2.4C89.6305 2.69867 89.7331 3.06267 89.7331 3.492C89.7331 3.90267 89.6305 4.25733 89.4251 4.556C89.2198 4.85467 88.9025 5.004 88.4731 5.004H81.4731ZM99.2251 8.336C99.6731 8.336 99.9998 8.48533 100.205 8.784C100.41 9.08267 100.513 9.44667 100.513 9.876C100.513 10.3053 100.41 10.6787 100.205 10.996C99.9998 11.2947 99.6731 11.444 99.2251 11.444H96.5931V23.036C96.5931 23.5587 96.4065 23.9413 96.0331 24.184C95.6785 24.4267 95.2678 24.548 94.8011 24.548C94.3345 24.548 93.9145 24.4267 93.5411 24.184C93.1865 23.9413 93.0091 23.5587 93.0091 23.036V1.588C93.0091 1.06533 93.1865 0.682666 93.5411 0.439999C93.9145 0.197332 94.3345 0.0759985 94.8011 0.0759985C95.2678 0.0759985 95.6785 0.197332 96.0331 0.439999C96.4065 0.682666 96.5931 1.06533 96.5931 1.588V8.336H99.2251ZM102.674 10.016C102.674 7.23467 103.234 5.12533 104.354 3.688C105.474 2.232 107.163 1.504 109.422 1.504C111.68 1.504 113.37 2.232 114.49 3.688C115.61 5.12533 116.17 7.23467 116.17 10.016C116.17 12.7973 115.61 14.916 114.49 16.372C113.37 17.8093 111.68 18.528 109.422 18.528C107.163 18.528 105.474 17.8093 104.354 16.372C103.234 14.916 102.674 12.7973 102.674 10.016ZM112.726 10.016C112.726 8.24267 112.483 6.89867 111.998 5.984C111.512 5.06933 110.654 4.612 109.422 4.612C108.19 4.612 107.331 5.06933 106.846 5.984C106.36 6.89867 106.118 8.24267 106.118 10.016C106.118 11.7893 106.36 13.1333 106.846 14.048C107.331 14.9627 108.19 15.42 109.422 15.42C110.654 15.42 111.512 14.9627 111.998 14.048C112.483 13.1333 112.726 11.7893 112.726 10.016ZM123.282 23.036C123.282 23.5587 123.095 23.9413 122.722 24.184C122.367 24.4267 121.947 24.548 121.462 24.548C120.995 24.548 120.575 24.4267 120.202 24.184C119.847 23.9413 119.67 23.5587 119.67 23.036V1.588C119.67 1.06533 119.847 0.682666 120.202 0.439999C120.575 0.197332 120.995 0.0759985 121.462 0.0759985C121.947 0.0759985 122.367 0.197332 122.722 0.439999C123.095 0.682666 123.282 1.06533 123.282 1.588V23.036ZM132.722 15C131.826 15 131.201 14.832 130.846 14.496C130.51 14.16 130.342 13.5533 130.342 12.676V2.876C130.342 2.372 130.529 1.99867 130.902 1.756C131.275 1.49467 131.686 1.364 132.134 1.364C132.582 1.364 132.993 1.49467 133.366 1.756C133.739 1.99867 133.926 2.372 133.926 2.876V5.648H144.398V2.876C144.398 2.372 144.585 1.99867 144.958 1.756C145.331 1.49467 145.742 1.364 146.19 1.364C146.638 1.364 147.049 1.49467 147.422 1.756C147.795 1.99867 147.982 2.372 147.982 2.876V12.676C147.982 13.5533 147.805 14.16 147.45 14.496C147.114 14.832 146.498 15 145.602 15H132.722ZM143.754 12.004C144.183 12.004 144.398 11.7893 144.398 11.36V8.644H133.926V11.36C133.926 11.7893 134.141 12.004 134.57 12.004H143.754ZM128.578 22.252C128.149 22.252 127.831 22.1027 127.626 21.804C127.421 21.5053 127.318 21.1507 127.318 20.74C127.318 20.3107 127.421 19.9467 127.626 19.648C127.831 19.3493 128.149 19.2 128.578 19.2H149.746C150.175 19.2 150.493 19.3493 150.698 19.648C150.903 19.9467 151.006 20.3107 151.006 20.74C151.006 21.1507 150.903 21.5053 150.698 21.804C150.493 22.1027 150.175 22.252 149.746 22.252H128.578Z" fill="#212121"/>
<path d="M171.086 12.172C171.086 13.0493 170.909 13.656 170.554 13.992C170.218 14.328 169.602 14.496 168.706 14.496H162.686C161.79 14.496 161.165 14.328 160.81 13.992C160.474 13.656 160.306 13.0493 160.306 12.172V4.164C160.306 3.28667 160.474 2.68 160.81 2.344C161.165 2.008 161.79 1.84 162.686 1.84H168.706C169.602 1.84 170.218 2.008 170.554 2.344C170.909 2.68 171.086 3.28667 171.086 4.164V12.172ZM167.782 5.48C167.782 5.05067 167.568 4.836 167.138 4.836H164.254C163.825 4.836 163.61 5.05067 163.61 5.48V10.856C163.61 11.2853 163.825 11.5 164.254 11.5H167.138C167.568 11.5 167.782 11.2853 167.782 10.856V5.48ZM169.49 6.656H173.662V1.616C173.662 1.13067 173.83 0.776 174.166 0.551999C174.502 0.327999 174.885 0.215998 175.314 0.215998C175.725 0.215998 176.098 0.327999 176.434 0.551999C176.77 0.776 176.938 1.13067 176.938 1.616V16.624C176.938 17.1093 176.77 17.464 176.434 17.688C176.098 17.912 175.725 18.024 175.314 18.024C174.885 18.024 174.502 17.912 174.166 17.688C173.83 17.464 173.662 17.1093 173.662 16.624V9.652H169.49V6.656ZM178.758 1.476C178.758 0.990665 178.926 0.635999 179.262 0.411999C179.598 0.187999 179.981 0.0759985 180.41 0.0759985C180.84 0.0759985 181.222 0.187999 181.558 0.411999C181.894 0.635999 182.062 0.990665 182.062 1.476V17.772C182.062 18.2573 181.894 18.612 181.558 18.836C181.222 19.06 180.84 19.172 180.41 19.172C179.981 19.172 179.598 19.06 179.262 18.836C178.926 18.612 178.758 18.2573 178.758 17.772V1.476ZM166.886 25.836C165.99 25.836 165.365 25.668 165.01 25.332C164.674 24.996 164.506 24.3893 164.506 23.512V18.22C164.506 17.6973 164.684 17.3147 165.038 17.072C165.412 16.8293 165.841 16.708 166.326 16.708C166.793 16.708 167.204 16.8293 167.558 17.072C167.932 17.3147 168.118 17.6973 168.118 18.22V22.14C168.118 22.5693 168.333 22.784 168.762 22.784H181.418C181.848 22.784 182.165 22.9333 182.37 23.232C182.576 23.5307 182.678 23.8947 182.678 24.324C182.678 24.7347 182.576 25.0893 182.37 25.388C182.165 25.6867 181.848 25.836 181.418 25.836H166.886ZM191.811 7.02H204.327C204.756 7.02 205.073 7.16933 205.279 7.468C205.484 7.76667 205.587 8.10267 205.587 8.476C205.587 8.84933 205.484 9.18533 205.279 9.484C205.073 9.78267 204.756 9.932 204.327 9.932H191.811V11.78C191.811 12.2093 192.025 12.424 192.455 12.424H205.027C205.456 12.424 205.773 12.5733 205.979 12.872C206.184 13.1707 206.287 13.5253 206.287 13.936C206.287 14.3467 206.184 14.7013 205.979 15C205.773 15.2987 205.456 15.448 205.027 15.448H190.691C189.795 15.448 189.169 15.28 188.815 14.944C188.479 14.608 188.311 14.0013 188.311 13.124V3.856C188.311 2.97867 188.479 2.372 188.815 2.036C189.169 1.7 189.795 1.532 190.691 1.532H204.607C205.036 1.532 205.353 1.68133 205.559 1.98C205.764 2.27867 205.867 2.63333 205.867 3.044C205.867 3.45467 205.764 3.80933 205.559 4.108C205.353 4.40667 205.036 4.556 204.607 4.556H192.455C192.025 4.556 191.811 4.77067 191.811 5.2V7.02ZM186.547 22.252C186.117 22.252 185.8 22.1027 185.595 21.804C185.389 21.5053 185.287 21.1507 185.287 20.74C185.287 20.3293 185.389 19.9747 185.595 19.676C185.8 19.3773 186.117 19.228 186.547 19.228H195.339V13.936H198.923V19.228H207.715C208.144 19.228 208.461 19.3773 208.667 19.676C208.872 19.9747 208.975 20.3293 208.975 20.74C208.975 21.1507 208.872 21.5053 208.667 21.804C208.461 22.1027 208.144 22.252 207.715 22.252H186.547Z" fill="#698CFF"/>
</svg>
