<svg width="164" height="23" viewBox="0 0 164 23" fill="none" xmlns="http://www.w3.org/2000/svg">
<path d="M134.901 2.64203C135.667 2.64203 136.237 2.7887 136.611 3.08203C136.984 3.3687 137.171 3.81536 137.171 4.42203V4.54203C137.171 4.7087 137.151 4.8687 137.111 5.02203C137.071 5.17536 137.004 5.3187 136.911 5.45203C136.824 5.5787 136.707 5.69203 136.561 5.79203C136.421 5.88536 136.244 5.9587 136.031 6.01203C136.251 6.04536 136.451 6.10203 136.631 6.18203C136.811 6.26203 136.964 6.37203 137.091 6.51203C137.224 6.64536 137.324 6.8087 137.391 7.00203C137.464 7.1887 137.501 7.41203 137.501 7.67203V7.83203C137.501 8.4387 137.314 8.91203 136.941 9.25203C136.567 9.58536 135.991 9.75203 135.211 9.75203H132.951C132.631 9.75203 132.407 9.69203 132.281 9.57203C132.161 9.45203 132.101 9.23536 132.101 8.92203V3.47203C132.101 3.1587 132.161 2.94203 132.281 2.82203C132.407 2.70203 132.631 2.64203 132.951 2.64203H134.901ZM133.371 8.69203H134.531C134.811 8.69203 135.054 8.68203 135.261 8.66203C135.474 8.64203 135.647 8.5987 135.781 8.53203C135.921 8.4587 136.024 8.35536 136.091 8.22203C136.157 8.0887 136.191 7.91203 136.191 7.69203V7.56203C136.191 7.39536 136.164 7.2487 136.111 7.12203C136.057 6.99536 135.964 6.89203 135.831 6.81203C135.697 6.73203 135.517 6.67203 135.291 6.63203C135.064 6.59203 134.781 6.57203 134.441 6.57203H133.371V8.69203ZM133.371 5.53203H134.411C134.704 5.53203 134.944 5.5187 135.131 5.49203C135.324 5.4587 135.474 5.40536 135.581 5.33203C135.694 5.2587 135.771 5.16203 135.811 5.04203C135.851 4.92203 135.871 4.7687 135.871 4.58203V4.49203C135.871 4.17203 135.751 3.96203 135.511 3.86203C135.277 3.75536 134.891 3.70203 134.351 3.70203H133.371V5.53203Z" fill="#698CFF"/>
<path d="M142.972 2.64203C143.125 2.64203 143.235 2.69536 143.302 2.80203C143.375 2.90203 143.412 3.02536 143.412 3.17203C143.412 3.31203 143.375 3.43536 143.302 3.54203C143.235 3.6487 143.125 3.70203 142.972 3.70203H139.982V5.59203H142.772C142.919 5.59203 143.025 5.64536 143.092 5.75203C143.165 5.85203 143.202 5.97203 143.202 6.11203C143.202 6.25203 143.165 6.37536 143.092 6.48203C143.025 6.58203 142.919 6.63203 142.772 6.63203H139.982V8.69203H143.042C143.195 8.69203 143.305 8.74536 143.372 8.85203C143.445 8.9587 143.482 9.08203 143.482 9.22203C143.482 9.3687 143.445 9.49536 143.372 9.60203C143.305 9.70203 143.195 9.75203 143.042 9.75203H139.562C139.242 9.75203 139.019 9.69203 138.892 9.57203C138.772 9.45203 138.712 9.23536 138.712 8.92203V3.47203C138.712 3.1587 138.772 2.94203 138.892 2.82203C139.019 2.70203 139.242 2.64203 139.562 2.64203H142.972Z" fill="#698CFF"/>
<path d="M149.206 2.64203C149.359 2.64203 149.473 2.69536 149.546 2.80203C149.619 2.9087 149.656 3.03536 149.656 3.18203C149.656 3.3287 149.619 3.45536 149.546 3.56203C149.473 3.6687 149.359 3.72203 149.206 3.72203H147.486V9.26203C147.486 9.45536 147.423 9.59536 147.296 9.68203C147.169 9.7687 147.019 9.81203 146.846 9.81203C146.673 9.81203 146.523 9.7687 146.396 9.68203C146.269 9.59536 146.206 9.45536 146.206 9.26203V3.72203H144.476C144.323 3.72203 144.209 3.6687 144.136 3.56203C144.063 3.45536 144.026 3.3287 144.026 3.18203C144.026 3.03536 144.063 2.9087 144.136 2.80203C144.209 2.69536 144.323 2.64203 144.476 2.64203H149.206Z" fill="#698CFF"/>
<path d="M152.641 2.58203C152.814 2.58203 152.964 2.62203 153.091 2.70203C153.218 2.78203 153.328 2.9387 153.421 3.17203L155.671 8.97203C155.744 9.16536 155.744 9.33203 155.671 9.47203C155.598 9.61203 155.478 9.7087 155.311 9.76203C155.144 9.81536 154.978 9.82203 154.811 9.78203C154.651 9.74203 154.534 9.61536 154.461 9.40203L153.881 7.80203H151.361L150.771 9.44203C150.698 9.63536 150.584 9.75203 150.431 9.79203C150.284 9.82536 150.131 9.81536 149.971 9.76203C149.811 9.7087 149.694 9.6187 149.621 9.49203C149.548 9.36536 149.548 9.2087 149.621 9.02203L151.871 3.17203C151.958 2.9387 152.064 2.78203 152.191 2.70203C152.324 2.62203 152.474 2.58203 152.641 2.58203ZM152.621 4.18203C152.568 4.38203 152.514 4.56203 152.461 4.72203C152.414 4.87536 152.351 5.06536 152.271 5.29203L151.741 6.74203H153.501L152.981 5.29203C152.894 5.0587 152.824 4.8587 152.771 4.69203C152.724 4.52536 152.674 4.35536 152.621 4.18203Z" fill="#698CFF"/>
<path d="M2.09601 4.2C1.72801 4.2 1.45601 4.072 1.28001 3.816C1.10401 3.56 1.01601 3.256 1.01601 2.904C1.01601 2.552 1.10401 2.248 1.28001 1.992C1.45601 1.736 1.72801 1.608 2.09601 1.608H9.12801C9.89601 1.608 10.424 1.752 10.712 2.04C11.016 2.328 11.168 2.848 11.168 3.6V6.552C11.168 7.288 11.128 7.952 11.048 8.544C10.968 9.136 10.816 9.688 10.592 10.2C10.368 10.696 10.064 11.176 9.68001 11.64C9.29601 12.088 8.79201 12.56 8.16801 13.056C7.56001 13.536 6.81601 14.056 5.93601 14.616C5.07201 15.16 4.04801 15.776 2.86401 16.464C2.52801 16.656 2.18401 16.696 1.83201 16.584C1.48001 16.472 1.20801 16.256 1.01601 15.936C0.824007 15.632 0.736007 15.288 0.752007 14.904C0.784007 14.52 0.984007 14.224 1.35201 14.016C2.45601 13.392 3.39201 12.848 4.16001 12.384C4.92801 11.92 5.56001 11.504 6.05601 11.136C6.56801 10.768 6.96001 10.432 7.23201 10.128C7.52001 9.824 7.73601 9.512 7.88001 9.192L1.59201 9.6C1.22401 9.632 0.944007 9.528 0.752007 9.288C0.576007 9.032 0.472007 8.72 0.440007 8.352C0.408007 8.032 0.472007 7.728 0.632007 7.44C0.792007 7.152 1.05601 7 1.42401 6.984L8.19201 6.72V4.752C8.19201 4.384 8.00801 4.2 7.64001 4.2H2.09601ZM15.248 9.816H9.94401V7.224H15.248V1.296C15.248 0.848001 15.4 0.52 15.704 0.312C16.024 0.104 16.384 0 16.784 0C17.168 0 17.512 0.104 17.816 0.312C18.136 0.52 18.296 0.848001 18.296 1.296V19.68C18.296 20.128 18.136 20.456 17.816 20.664C17.512 20.872 17.168 20.976 16.784 20.976C16.384 20.976 16.024 20.872 15.704 20.664C15.4 20.456 15.248 20.128 15.248 19.68V9.816Z" fill="#212121"/>
<path d="M23.9158 4.056C23.5478 4.056 23.2758 3.928 23.0998 3.672C22.9238 3.416 22.8358 3.112 22.8358 2.76C22.8358 2.408 22.9238 2.104 23.0998 1.848C23.2758 1.592 23.5478 1.464 23.9158 1.464H31.0678C31.8358 1.464 32.3638 1.608 32.6518 1.896C32.9558 2.184 33.1078 2.704 33.1078 3.456V7.92C33.1078 8.672 32.9558 9.192 32.6518 9.48C32.3638 9.768 31.8358 9.912 31.0678 9.912H26.4358C26.0678 9.912 25.8838 10.096 25.8838 10.464V12.84C25.8838 13.208 26.0678 13.392 26.4358 13.392C27.9398 13.392 29.3238 13.36 30.5878 13.296C31.8518 13.216 33.0678 13.096 34.2358 12.936C34.6038 12.888 34.8918 12.976 35.0998 13.2C35.3238 13.424 35.4518 13.704 35.4838 14.04C35.5158 14.408 35.4678 14.736 35.3398 15.024C35.2118 15.296 34.9718 15.456 34.6198 15.504C34.1238 15.568 33.5718 15.632 32.9638 15.696C32.3558 15.744 31.6598 15.792 30.8758 15.84C30.1078 15.888 29.2278 15.928 28.2358 15.96C27.2598 15.976 26.1478 15.984 24.8998 15.984C24.1318 15.984 23.5958 15.84 23.2918 15.552C23.0038 15.264 22.8598 14.744 22.8598 13.992V9.408C22.8598 8.656 23.0038 8.136 23.2918 7.848C23.5958 7.56 24.1318 7.416 24.8998 7.416H29.5318C29.8998 7.416 30.0838 7.232 30.0838 6.864V4.608C30.0838 4.24 29.8998 4.056 29.5318 4.056H23.9158ZM39.9958 19.68C39.9958 20.128 39.8358 20.456 39.5158 20.664C39.2118 20.872 38.8518 20.976 38.4358 20.976C38.0358 20.976 37.6758 20.872 37.3558 20.664C37.0518 20.456 36.8998 20.128 36.8998 19.68V1.296C36.8998 0.848001 37.0518 0.52 37.3558 0.312C37.6758 0.104 38.0358 0 38.4358 0C38.8518 0 39.2118 0.104 39.5158 0.312C39.8358 0.52 39.9958 0.848001 39.9958 1.296V19.68Z" fill="#212121"/>
<path d="M44.0315 8.52C44.0315 6.136 44.5035 4.328 45.4475 3.096C46.4075 1.864 47.8395 1.248 49.7435 1.248C51.6475 1.248 53.0715 1.864 54.0155 3.096C54.9755 4.328 55.4555 6.136 55.4555 8.52C55.4555 10.904 54.9755 12.712 54.0155 13.944C53.0715 15.176 51.6475 15.792 49.7435 15.792C47.8395 15.792 46.4075 15.176 45.4475 13.944C44.5035 12.712 44.0315 10.904 44.0315 8.52ZM52.5035 8.52C52.5035 7 52.2955 5.856 51.8795 5.088C51.4795 4.304 50.7675 3.912 49.7435 3.912C48.7195 3.912 47.9995 4.304 47.5835 5.088C47.1835 5.856 46.9835 7 46.9835 8.52C46.9835 10.04 47.1835 11.192 47.5835 11.976C47.9995 12.744 48.7195 13.128 49.7435 13.128C50.7675 13.128 51.4795 12.744 51.8795 11.976C52.2955 11.192 52.5035 10.04 52.5035 8.52ZM58.9355 9.816H53.6315V7.224H58.9355V1.296C58.9355 0.848001 59.0875 0.52 59.3915 0.312C59.7115 0.104 60.0715 0 60.4715 0C60.8555 0 61.1995 0.104 61.5035 0.312C61.8235 0.52 61.9835 0.848001 61.9835 1.296V19.68C61.9835 20.128 61.8235 20.456 61.5035 20.664C61.1995 20.872 60.8555 20.976 60.4715 20.976C60.0715 20.976 59.7115 20.872 59.3915 20.664C59.0875 20.456 58.9355 20.128 58.9355 19.68V9.816Z" fill="#212121"/>
<path d="M69.6913 4.224C69.3233 4.224 69.1393 4.408 69.1393 4.776V12.312C69.1393 12.68 69.3233 12.864 69.6913 12.864C71.0513 12.864 72.3473 12.832 73.5793 12.768C74.8273 12.688 76.0353 12.568 77.2033 12.408C77.5713 12.36 77.8593 12.448 78.0673 12.672C78.2913 12.896 78.4193 13.184 78.4513 13.536C78.4833 13.904 78.4353 14.232 78.3073 14.52C78.1793 14.792 77.9393 14.952 77.5873 15C77.0913 15.064 76.5393 15.128 75.9313 15.192C75.3393 15.24 74.6593 15.288 73.8913 15.336C73.1233 15.384 72.2593 15.424 71.2993 15.456C70.3553 15.472 69.2913 15.48 68.1073 15.48C67.3393 15.48 66.8033 15.336 66.4993 15.048C66.2113 14.76 66.0673 14.24 66.0673 13.488V3.6C66.0673 2.848 66.2113 2.328 66.4993 2.04C66.8033 1.752 67.3393 1.608 68.1073 1.608H75.6913C76.0593 1.608 76.3313 1.736 76.5073 1.992C76.6833 2.248 76.7713 2.56 76.7713 2.928C76.7713 3.28 76.6833 3.584 76.5073 3.84C76.3313 4.096 76.0593 4.224 75.6913 4.224H69.6913ZM84.9073 7.08C85.2913 7.08 85.5713 7.208 85.7473 7.464C85.9233 7.72 86.0113 8.032 86.0113 8.4C86.0113 8.768 85.9233 9.088 85.7473 9.36C85.5713 9.616 85.2913 9.744 84.9073 9.744H82.6513V19.68C82.6513 20.128 82.4913 20.456 82.1713 20.664C81.8673 20.872 81.5153 20.976 81.1153 20.976C80.7153 20.976 80.3553 20.872 80.0353 20.664C79.7313 20.456 79.5793 20.128 79.5793 19.68V1.296C79.5793 0.848001 79.7313 0.52 80.0353 0.312C80.3553 0.104 80.7153 0 81.1153 0C81.5153 0 81.8673 0.104 82.1713 0.312C82.4913 0.52 82.6513 0.848001 82.6513 1.296V7.08H84.9073Z" fill="#212121"/>
<path d="M87.863 8.52C87.863 6.136 88.343 4.328 89.303 3.096C90.263 1.848 91.711 1.224 93.647 1.224C95.583 1.224 97.031 1.848 97.991 3.096C98.951 4.328 99.431 6.136 99.431 8.52C99.431 10.904 98.951 12.72 97.991 13.968C97.031 15.2 95.583 15.816 93.647 15.816C91.711 15.816 90.263 15.2 89.303 13.968C88.343 12.72 87.863 10.904 87.863 8.52ZM96.479 8.52C96.479 7 96.271 5.848 95.855 5.064C95.439 4.28 94.703 3.888 93.647 3.888C92.591 3.888 91.855 4.28 91.439 5.064C91.023 5.848 90.815 7 90.815 8.52C90.815 10.04 91.023 11.192 91.439 11.976C91.855 12.76 92.591 13.152 93.647 13.152C94.703 13.152 95.439 12.76 95.855 11.976C96.271 11.192 96.479 10.04 96.479 8.52ZM105.527 19.68C105.527 20.128 105.367 20.456 105.047 20.664C104.743 20.872 104.383 20.976 103.967 20.976C103.567 20.976 103.207 20.872 102.887 20.664C102.583 20.456 102.431 20.128 102.431 19.68V1.296C102.431 0.848001 102.583 0.52 102.887 0.312C103.207 0.104 103.567 0 103.967 0C104.383 0 104.743 0.104 105.047 0.312C105.367 0.52 105.527 0.848001 105.527 1.296V19.68Z" fill="#212121"/>
<path d="M113.619 12.792C112.851 12.792 112.315 12.648 112.011 12.36C111.723 12.072 111.579 11.552 111.579 10.8V2.4C111.579 1.968 111.739 1.648 112.059 1.44C112.379 1.216 112.731 1.104 113.115 1.104C113.499 1.104 113.851 1.216 114.171 1.44C114.491 1.648 114.651 1.968 114.651 2.4V4.776H123.627V2.4C123.627 1.968 123.787 1.648 124.107 1.44C124.427 1.216 124.779 1.104 125.163 1.104C125.547 1.104 125.899 1.216 126.219 1.44C126.539 1.648 126.699 1.968 126.699 2.4V10.8C126.699 11.552 126.547 12.072 126.243 12.36C125.955 12.648 125.427 12.792 124.659 12.792H113.619ZM123.075 10.224C123.443 10.224 123.627 10.04 123.627 9.672V7.344H114.651V9.672C114.651 10.04 114.835 10.224 115.203 10.224H123.075ZM110.067 19.008C109.699 19.008 109.427 18.88 109.251 18.624C109.075 18.368 108.987 18.064 108.987 17.712C108.987 17.344 109.075 17.032 109.251 16.776C109.427 16.52 109.699 16.392 110.067 16.392H128.211C128.579 16.392 128.851 16.52 129.027 16.776C129.203 17.032 129.291 17.344 129.291 17.712C129.291 18.064 129.203 18.368 129.027 18.624C128.851 18.88 128.579 19.008 128.211 19.008H110.067Z" fill="#212121"/>
</svg>
