<svg width="206" height="23" viewBox="0 0 206 23" fill="none" xmlns="http://www.w3.org/2000/svg">
<path d="M184.61 0.642031C185.377 0.642031 185.947 0.788698 186.32 1.08203C186.693 1.3687 186.88 1.81536 186.88 2.42203V2.54203C186.88 2.7087 186.86 2.8687 186.82 3.02203C186.78 3.17536 186.713 3.3187 186.62 3.45203C186.533 3.5787 186.417 3.69203 186.27 3.79203C186.13 3.88536 185.953 3.9587 185.74 4.01203C185.96 4.04536 186.16 4.10203 186.34 4.18203C186.52 4.26203 186.673 4.37203 186.8 4.51203C186.933 4.64536 187.033 4.8087 187.1 5.00203C187.173 5.1887 187.21 5.41203 187.21 5.67203V5.83203C187.21 6.4387 187.023 6.91203 186.65 7.25203C186.277 7.58536 185.7 7.75203 184.92 7.75203H182.66C182.34 7.75203 182.117 7.69203 181.99 7.57203C181.87 7.45203 181.81 7.23536 181.81 6.92203V1.47203C181.81 1.1587 181.87 0.942031 181.99 0.822031C182.117 0.702031 182.34 0.642031 182.66 0.642031H184.61ZM183.08 6.69203H184.24C184.52 6.69203 184.763 6.68203 184.97 6.66203C185.183 6.64203 185.357 6.5987 185.49 6.53203C185.63 6.4587 185.733 6.35536 185.8 6.22203C185.867 6.0887 185.9 5.91203 185.9 5.69203V5.56203C185.9 5.39536 185.873 5.2487 185.82 5.12203C185.767 4.99536 185.673 4.89203 185.54 4.81203C185.407 4.73203 185.227 4.67203 185 4.63203C184.773 4.59203 184.49 4.57203 184.15 4.57203H183.08V6.69203ZM183.08 3.53203H184.12C184.413 3.53203 184.653 3.5187 184.84 3.49203C185.033 3.4587 185.183 3.40536 185.29 3.33203C185.403 3.2587 185.48 3.16203 185.52 3.04203C185.56 2.92203 185.58 2.7687 185.58 2.58203V2.49203C185.58 2.17203 185.46 1.96203 185.22 1.86203C184.987 1.75536 184.6 1.70203 184.06 1.70203H183.08V3.53203Z" fill="#E25D7D"/>
<path d="M192.681 0.642031C192.835 0.642031 192.945 0.695364 193.011 0.802031C193.085 0.902031 193.121 1.02536 193.121 1.17203C193.121 1.31203 193.085 1.43536 193.011 1.54203C192.945 1.6487 192.835 1.70203 192.681 1.70203H189.691V3.59203H192.481C192.628 3.59203 192.735 3.64536 192.801 3.75203C192.875 3.85203 192.911 3.97203 192.911 4.11203C192.911 4.25203 192.875 4.37536 192.801 4.48203C192.735 4.58203 192.628 4.63203 192.481 4.63203H189.691V6.69203H192.751C192.905 6.69203 193.015 6.74536 193.081 6.85203C193.155 6.9587 193.191 7.08203 193.191 7.22203C193.191 7.3687 193.155 7.49536 193.081 7.60203C193.015 7.70203 192.905 7.75203 192.751 7.75203H189.271C188.951 7.75203 188.728 7.69203 188.601 7.57203C188.481 7.45203 188.421 7.23536 188.421 6.92203V1.47203C188.421 1.1587 188.481 0.942031 188.601 0.822031C188.728 0.702031 188.951 0.642031 189.271 0.642031H192.681Z" fill="#E25D7D"/>
<path d="M198.915 0.642031C199.069 0.642031 199.182 0.695364 199.255 0.802031C199.329 0.908698 199.365 1.03536 199.365 1.18203C199.365 1.3287 199.329 1.45536 199.255 1.56203C199.182 1.6687 199.069 1.72203 198.915 1.72203H197.195V7.26203C197.195 7.45536 197.132 7.59536 197.005 7.68203C196.879 7.7687 196.729 7.81203 196.555 7.81203C196.382 7.81203 196.232 7.7687 196.105 7.68203C195.979 7.59536 195.915 7.45536 195.915 7.26203V1.72203H194.185C194.032 1.72203 193.919 1.6687 193.845 1.56203C193.772 1.45536 193.735 1.3287 193.735 1.18203C193.735 1.03536 193.772 0.908698 193.845 0.802031C193.919 0.695364 194.032 0.642031 194.185 0.642031H198.915Z" fill="#E25D7D"/>
<path d="M202.35 0.582031C202.523 0.582031 202.673 0.622031 202.8 0.702031C202.927 0.782031 203.037 0.938698 203.13 1.17203L205.38 6.97203C205.453 7.16536 205.453 7.33203 205.38 7.47203C205.307 7.61203 205.187 7.7087 205.02 7.76203C204.853 7.81536 204.687 7.82203 204.52 7.78203C204.36 7.74203 204.243 7.61536 204.17 7.40203L203.59 5.80203H201.07L200.48 7.44203C200.407 7.63536 200.293 7.75203 200.14 7.79203C199.993 7.82536 199.84 7.81536 199.68 7.76203C199.52 7.7087 199.403 7.6187 199.33 7.49203C199.257 7.36536 199.257 7.2087 199.33 7.02203L201.58 1.17203C201.667 0.938698 201.773 0.782031 201.9 0.702031C202.033 0.622031 202.183 0.582031 202.35 0.582031ZM202.33 2.18203C202.277 2.38203 202.223 2.56203 202.17 2.72203C202.123 2.87536 202.06 3.06536 201.98 3.29203L201.45 4.74203H203.21L202.69 3.29203C202.603 3.0587 202.533 2.8587 202.48 2.69203C202.433 2.52536 202.383 2.35536 202.33 2.18203Z" fill="#E25D7D"/>
<path d="M2.09601 4.2C1.72801 4.2 1.45601 4.072 1.28001 3.816C1.10401 3.56 1.01601 3.256 1.01601 2.904C1.01601 2.552 1.10401 2.248 1.28001 1.992C1.45601 1.736 1.72801 1.608 2.09601 1.608H9.12801C9.89601 1.608 10.424 1.752 10.712 2.04C11.016 2.328 11.168 2.848 11.168 3.6V6.552C11.168 7.288 11.128 7.952 11.048 8.544C10.968 9.136 10.816 9.688 10.592 10.2C10.368 10.696 10.064 11.176 9.68001 11.64C9.29601 12.088 8.79201 12.56 8.16801 13.056C7.56001 13.536 6.81601 14.056 5.93601 14.616C5.07201 15.16 4.04801 15.776 2.86401 16.464C2.52801 16.656 2.18401 16.696 1.83201 16.584C1.48001 16.472 1.20801 16.256 1.01601 15.936C0.824007 15.632 0.736007 15.288 0.752007 14.904C0.784007 14.52 0.984007 14.224 1.35201 14.016C2.45601 13.392 3.39201 12.848 4.16001 12.384C4.92801 11.92 5.56001 11.504 6.05601 11.136C6.56801 10.768 6.96001 10.432 7.23201 10.128C7.52001 9.824 7.73601 9.512 7.88001 9.192L1.59201 9.6C1.22401 9.632 0.944007 9.528 0.752007 9.288C0.576007 9.032 0.472007 8.72 0.440007 8.352C0.408007 8.032 0.472007 7.728 0.632007 7.44C0.792007 7.152 1.05601 7 1.42401 6.984L8.19201 6.72V4.752C8.19201 4.384 8.00801 4.2 7.64001 4.2H2.09601ZM15.248 9.816H9.94401V7.224H15.248V1.296C15.248 0.848001 15.4 0.52 15.704 0.312C16.024 0.104 16.384 0 16.784 0C17.168 0 17.512 0.104 17.816 0.312C18.136 0.52 18.296 0.848001 18.296 1.296V19.68C18.296 20.128 18.136 20.456 17.816 20.664C17.512 20.872 17.168 20.976 16.784 20.976C16.384 20.976 16.024 20.872 15.704 20.664C15.4 20.456 15.248 20.128 15.248 19.68V9.816Z" fill="#212121"/>
<path d="M23.9158 4.056C23.5478 4.056 23.2758 3.928 23.0998 3.672C22.9238 3.416 22.8358 3.112 22.8358 2.76C22.8358 2.408 22.9238 2.104 23.0998 1.848C23.2758 1.592 23.5478 1.464 23.9158 1.464H31.0678C31.8358 1.464 32.3638 1.608 32.6518 1.896C32.9558 2.184 33.1078 2.704 33.1078 3.456V7.92C33.1078 8.672 32.9558 9.192 32.6518 9.48C32.3638 9.768 31.8358 9.912 31.0678 9.912H26.4358C26.0678 9.912 25.8838 10.096 25.8838 10.464V12.84C25.8838 13.208 26.0678 13.392 26.4358 13.392C27.9398 13.392 29.3238 13.36 30.5878 13.296C31.8518 13.216 33.0678 13.096 34.2358 12.936C34.6038 12.888 34.8918 12.976 35.0998 13.2C35.3238 13.424 35.4518 13.704 35.4838 14.04C35.5158 14.408 35.4678 14.736 35.3398 15.024C35.2118 15.296 34.9718 15.456 34.6198 15.504C34.1238 15.568 33.5718 15.632 32.9638 15.696C32.3558 15.744 31.6598 15.792 30.8758 15.84C30.1078 15.888 29.2278 15.928 28.2358 15.96C27.2598 15.976 26.1478 15.984 24.8998 15.984C24.1318 15.984 23.5958 15.84 23.2918 15.552C23.0038 15.264 22.8598 14.744 22.8598 13.992V9.408C22.8598 8.656 23.0038 8.136 23.2918 7.848C23.5958 7.56 24.1318 7.416 24.8998 7.416H29.5318C29.8998 7.416 30.0838 7.232 30.0838 6.864V4.608C30.0838 4.24 29.8998 4.056 29.5318 4.056H23.9158ZM39.9958 19.68C39.9958 20.128 39.8358 20.456 39.5158 20.664C39.2118 20.872 38.8518 20.976 38.4358 20.976C38.0358 20.976 37.6758 20.872 37.3558 20.664C37.0518 20.456 36.8998 20.128 36.8998 19.68V1.296C36.8998 0.848001 37.0518 0.52 37.3558 0.312C37.6758 0.104 38.0358 0 38.4358 0C38.8518 0 39.2118 0.104 39.5158 0.312C39.8358 0.52 39.9958 0.848001 39.9958 1.296V19.68Z" fill="#212121"/>
<path d="M44.0315 8.52C44.0315 6.136 44.5035 4.328 45.4475 3.096C46.4075 1.864 47.8395 1.248 49.7435 1.248C51.6475 1.248 53.0715 1.864 54.0155 3.096C54.9755 4.328 55.4555 6.136 55.4555 8.52C55.4555 10.904 54.9755 12.712 54.0155 13.944C53.0715 15.176 51.6475 15.792 49.7435 15.792C47.8395 15.792 46.4075 15.176 45.4475 13.944C44.5035 12.712 44.0315 10.904 44.0315 8.52ZM52.5035 8.52C52.5035 7 52.2955 5.856 51.8795 5.088C51.4795 4.304 50.7675 3.912 49.7435 3.912C48.7195 3.912 47.9995 4.304 47.5835 5.088C47.1835 5.856 46.9835 7 46.9835 8.52C46.9835 10.04 47.1835 11.192 47.5835 11.976C47.9995 12.744 48.7195 13.128 49.7435 13.128C50.7675 13.128 51.4795 12.744 51.8795 11.976C52.2955 11.192 52.5035 10.04 52.5035 8.52ZM58.9355 9.816H53.6315V7.224H58.9355V1.296C58.9355 0.848001 59.0875 0.52 59.3915 0.312C59.7115 0.104 60.0715 0 60.4715 0C60.8555 0 61.1995 0.104 61.5035 0.312C61.8235 0.52 61.9835 0.848001 61.9835 1.296V19.68C61.9835 20.128 61.8235 20.456 61.5035 20.664C61.1995 20.872 60.8555 20.976 60.4715 20.976C60.0715 20.976 59.7115 20.872 59.3915 20.664C59.0875 20.456 58.9355 20.128 58.9355 19.68V9.816Z" fill="#212121"/>
<path d="M69.6913 4.224C69.3233 4.224 69.1393 4.408 69.1393 4.776V12.312C69.1393 12.68 69.3233 12.864 69.6913 12.864C71.0513 12.864 72.3473 12.832 73.5793 12.768C74.8273 12.688 76.0353 12.568 77.2033 12.408C77.5713 12.36 77.8593 12.448 78.0673 12.672C78.2913 12.896 78.4193 13.184 78.4513 13.536C78.4833 13.904 78.4353 14.232 78.3073 14.52C78.1793 14.792 77.9393 14.952 77.5873 15C77.0913 15.064 76.5393 15.128 75.9313 15.192C75.3393 15.24 74.6593 15.288 73.8913 15.336C73.1233 15.384 72.2593 15.424 71.2993 15.456C70.3553 15.472 69.2913 15.48 68.1073 15.48C67.3393 15.48 66.8033 15.336 66.4993 15.048C66.2113 14.76 66.0673 14.24 66.0673 13.488V3.6C66.0673 2.848 66.2113 2.328 66.4993 2.04C66.8033 1.752 67.3393 1.608 68.1073 1.608H75.6913C76.0593 1.608 76.3313 1.736 76.5073 1.992C76.6833 2.248 76.7713 2.56 76.7713 2.928C76.7713 3.28 76.6833 3.584 76.5073 3.84C76.3313 4.096 76.0593 4.224 75.6913 4.224H69.6913ZM84.9073 7.08C85.2913 7.08 85.5713 7.208 85.7473 7.464C85.9233 7.72 86.0113 8.032 86.0113 8.4C86.0113 8.768 85.9233 9.088 85.7473 9.36C85.5713 9.616 85.2913 9.744 84.9073 9.744H82.6513V19.68C82.6513 20.128 82.4913 20.456 82.1713 20.664C81.8673 20.872 81.5153 20.976 81.1153 20.976C80.7153 20.976 80.3553 20.872 80.0353 20.664C79.7313 20.456 79.5793 20.128 79.5793 19.68V1.296C79.5793 0.848001 79.7313 0.52 80.0353 0.312C80.3553 0.104 80.7153 0 81.1153 0C81.5153 0 81.8673 0.104 82.1713 0.312C82.4913 0.52 82.6513 0.848001 82.6513 1.296V7.08H84.9073Z" fill="#212121"/>
<path d="M87.863 8.52C87.863 6.136 88.343 4.328 89.303 3.096C90.263 1.848 91.711 1.224 93.647 1.224C95.583 1.224 97.031 1.848 97.991 3.096C98.951 4.328 99.431 6.136 99.431 8.52C99.431 10.904 98.951 12.72 97.991 13.968C97.031 15.2 95.583 15.816 93.647 15.816C91.711 15.816 90.263 15.2 89.303 13.968C88.343 12.72 87.863 10.904 87.863 8.52ZM96.479 8.52C96.479 7 96.271 5.848 95.855 5.064C95.439 4.28 94.703 3.888 93.647 3.888C92.591 3.888 91.855 4.28 91.439 5.064C91.023 5.848 90.815 7 90.815 8.52C90.815 10.04 91.023 11.192 91.439 11.976C91.855 12.76 92.591 13.152 93.647 13.152C94.703 13.152 95.439 12.76 95.855 11.976C96.271 11.192 96.479 10.04 96.479 8.52ZM105.527 19.68C105.527 20.128 105.367 20.456 105.047 20.664C104.743 20.872 104.383 20.976 103.967 20.976C103.567 20.976 103.207 20.872 102.887 20.664C102.583 20.456 102.431 20.128 102.431 19.68V1.296C102.431 0.848001 102.583 0.52 102.887 0.312C103.207 0.104 103.567 0 103.967 0C104.383 0 104.743 0.104 105.047 0.312C105.367 0.52 105.527 0.848001 105.527 1.296V19.68Z" fill="#212121"/>
<path d="M113.619 12.792C112.851 12.792 112.315 12.648 112.011 12.36C111.723 12.072 111.579 11.552 111.579 10.8V2.4C111.579 1.968 111.739 1.648 112.059 1.44C112.379 1.216 112.731 1.104 113.115 1.104C113.499 1.104 113.851 1.216 114.171 1.44C114.491 1.648 114.651 1.968 114.651 2.4V4.776H123.627V2.4C123.627 1.968 123.787 1.648 124.107 1.44C124.427 1.216 124.779 1.104 125.163 1.104C125.547 1.104 125.899 1.216 126.219 1.44C126.539 1.648 126.699 1.968 126.699 2.4V10.8C126.699 11.552 126.547 12.072 126.243 12.36C125.955 12.648 125.427 12.792 124.659 12.792H113.619ZM123.075 10.224C123.443 10.224 123.627 10.04 123.627 9.672V7.344H114.651V9.672C114.651 10.04 114.835 10.224 115.203 10.224H123.075ZM110.067 19.008C109.699 19.008 109.427 18.88 109.251 18.624C109.075 18.368 108.987 18.064 108.987 17.712C108.987 17.344 109.075 17.032 109.251 16.776C109.427 16.52 109.699 16.392 110.067 16.392H128.211C128.579 16.392 128.851 16.52 129.027 16.776C129.203 17.032 129.291 17.344 129.291 17.712C129.291 18.064 129.203 18.368 129.027 18.624C128.851 18.88 128.579 19.008 128.211 19.008H110.067Z" fill="#212121"/>
<path d="M146.503 10.368C146.503 11.12 146.351 11.64 146.047 11.928C145.759 12.216 145.231 12.36 144.463 12.36H139.303C138.535 12.36 137.999 12.216 137.695 11.928C137.407 11.64 137.263 11.12 137.263 10.368V3.504C137.263 2.752 137.407 2.232 137.695 1.944C137.999 1.656 138.535 1.512 139.303 1.512H144.463C145.231 1.512 145.759 1.656 146.047 1.944C146.351 2.232 146.503 2.752 146.503 3.504V10.368ZM143.671 4.632C143.671 4.264 143.487 4.08 143.119 4.08H140.647C140.279 4.08 140.095 4.264 140.095 4.632V9.24C140.095 9.608 140.279 9.792 140.647 9.792H143.119C143.487 9.792 143.671 9.608 143.671 9.24V4.632ZM145.135 5.64H148.711V1.32C148.711 0.904001 148.855 0.600001 149.143 0.408C149.431 0.216 149.759 0.12 150.127 0.12C150.479 0.12 150.799 0.216 151.087 0.408C151.375 0.600001 151.519 0.904001 151.519 1.32V14.184C151.519 14.6 151.375 14.904 151.087 15.096C150.799 15.288 150.479 15.384 150.127 15.384C149.759 15.384 149.431 15.288 149.143 15.096C148.855 14.904 148.711 14.6 148.711 14.184V8.208H145.135V5.64ZM153.079 1.2C153.079 0.784 153.223 0.48 153.511 0.288001C153.799 0.0960002 154.127 0 154.495 0C154.863 0 155.191 0.0960002 155.479 0.288001C155.767 0.48 155.911 0.784 155.911 1.2V15.168C155.911 15.584 155.767 15.888 155.479 16.08C155.191 16.272 154.863 16.368 154.495 16.368C154.127 16.368 153.799 16.272 153.511 16.08C153.223 15.888 153.079 15.584 153.079 15.168V1.2ZM142.903 22.08C142.135 22.08 141.599 21.936 141.295 21.648C141.007 21.36 140.863 20.84 140.863 20.088V15.552C140.863 15.104 141.015 14.776 141.319 14.568C141.639 14.36 142.007 14.256 142.423 14.256C142.823 14.256 143.175 14.36 143.479 14.568C143.799 14.776 143.959 15.104 143.959 15.552V18.912C143.959 19.28 144.143 19.464 144.511 19.464H155.359C155.727 19.464 155.999 19.592 156.175 19.848C156.351 20.104 156.439 20.416 156.439 20.784C156.439 21.136 156.351 21.44 156.175 21.696C155.999 21.952 155.727 22.08 155.359 22.08H142.903Z" fill="#E25D7D"/>
<path d="M164.266 5.952H174.994C175.362 5.952 175.634 6.08 175.81 6.336C175.986 6.592 176.074 6.88 176.074 7.2C176.074 7.52 175.986 7.808 175.81 8.064C175.634 8.32 175.362 8.448 174.994 8.448H164.266V10.032C164.266 10.4 164.45 10.584 164.818 10.584H175.594C175.962 10.584 176.234 10.712 176.41 10.968C176.586 11.224 176.674 11.528 176.674 11.88C176.674 12.232 176.586 12.536 176.41 12.792C176.234 13.048 175.962 13.176 175.594 13.176H163.306C162.538 13.176 162.002 13.032 161.698 12.744C161.41 12.456 161.266 11.936 161.266 11.184V3.24C161.266 2.488 161.41 1.968 161.698 1.68C162.002 1.392 162.538 1.248 163.306 1.248H175.234C175.602 1.248 175.874 1.376 176.05 1.632C176.226 1.888 176.314 2.192 176.314 2.544C176.314 2.896 176.226 3.2 176.05 3.456C175.874 3.712 175.602 3.84 175.234 3.84H164.818C164.45 3.84 164.266 4.024 164.266 4.392V5.952ZM159.754 19.008C159.386 19.008 159.114 18.88 158.938 18.624C158.762 18.368 158.674 18.064 158.674 17.712C158.674 17.36 158.762 17.056 158.938 16.8C159.114 16.544 159.386 16.416 159.754 16.416H167.29V11.88H170.362V16.416H177.898C178.266 16.416 178.538 16.544 178.714 16.8C178.89 17.056 178.978 17.36 178.978 17.712C178.978 18.064 178.89 18.368 178.714 18.624C178.538 18.88 178.266 19.008 177.898 19.008H159.754Z" fill="#E25D7D"/>
</svg>
