<svg width="120" height="120" viewBox="0 0 120 120" fill="none" xmlns="http://www.w3.org/2000/svg">
<path d="M95.6221 84.2697H34.8253C33.0388 84.2697 31.5908 82.8215 31.5908 81.0352V3.23445C31.5906 1.44821 33.0388 0 34.8253 0H95.6221C97.4085 0 98.8565 1.44821 98.8565 3.23445V81.035C98.8567 82.8215 97.4085 84.2697 95.6221 84.2697Z" fill="#F1F1F1"/>
<path d="M98.8565 3.23541V81.035C98.8565 82.8217 97.4079 84.2704 95.6211 84.2704H89.7998C91.5865 84.2704 93.0352 82.8217 93.0352 81.035V3.23541C93.0352 1.44869 91.5865 0 89.7998 0H95.6211C97.4079 0 98.8565 1.44869 98.8565 3.23541Z" fill="#D1D1D1"/>
<path d="M77.5608 94.8166H16.7637C14.9773 94.8166 13.5293 93.3683 13.5293 91.5821V13.7813C13.5293 11.9948 14.9775 10.5469 16.7637 10.5469H77.5605C79.347 10.5469 80.795 11.9951 80.795 13.7813V91.5819C80.7952 93.3684 79.347 94.8166 77.5608 94.8166Z" fill="#F7F7F7"/>
<path d="M80.7963 13.7799V91.5819C80.7963 93.3686 79.3476 94.8173 77.5609 94.8173H71.8579C73.6446 94.8173 75.0933 93.3686 75.0933 91.5819V13.7799C75.0933 11.9956 73.6446 10.5469 71.8579 10.5469H77.5609C79.3476 10.5469 80.7963 11.9956 80.7963 13.7799Z" fill="#D1D1D1"/>
<path d="M106.718 44.1462V106.02C106.718 110.574 103.026 114.265 98.4726 114.265H13.9149C9.35874 114.265 5.66699 110.574 5.66699 106.02V58.5776C5.66699 54.0239 9.35874 50.3322 13.9149 50.3322H51.8078C54.896 50.3322 57.704 48.5382 59.003 45.735L60.5217 42.4585C61.8207 39.6553 64.6288 37.8613 67.7169 37.8613H100.433C103.905 37.8613 106.718 40.6742 106.718 44.1462Z" fill="#FFD15B"/>
<path d="M106.718 44.1462V106.02C106.718 110.574 103.027 114.265 98.4728 114.265H92.4897C97.0435 114.265 100.735 110.574 100.735 106.02V44.1462C100.735 40.6742 97.9223 37.8613 94.4527 37.8613H100.433C103.905 37.8613 106.718 40.6742 106.718 44.1462Z" fill="#FEB137"/>
<path d="M106.718 72.3089V106.02C106.718 110.574 103.027 114.265 98.4728 114.265H57.0668C56.3593 112.86 55.9609 111.274 55.9609 109.593V77.9709C55.9609 72.2244 60.6209 67.5645 66.3674 67.5645L72.3051 67.5652L106.718 72.3089Z" fill="#FEB137"/>
<path d="M103.926 119.999H72.3054C66.5579 119.999 61.8984 115.34 61.8984 109.592V77.9714C61.8984 72.2239 66.5577 67.5645 72.3054 67.5645H103.926C109.674 67.5645 114.333 72.2237 114.333 77.9714V109.592C114.333 115.34 109.674 119.999 103.926 119.999Z" fill="#B4CE16"/>
<path d="M103.926 67.5645H97.9883C103.736 67.5645 108.395 72.2237 108.395 77.9714V109.592C108.395 115.34 103.736 119.999 97.9883 119.999H103.926C109.673 119.999 114.333 115.34 114.333 109.592V77.9714C114.333 72.2239 109.673 67.5645 103.926 67.5645Z" fill="#9CB40F"/>
<path d="M45.4966 77.439H19.2982C17.6487 77.439 16.3115 76.1018 16.3115 74.4523V70.5512C16.3115 68.9016 17.6487 67.5645 19.2982 67.5645H45.4964C47.146 67.5645 48.4831 68.9016 48.4831 70.5512V74.4523C48.4831 76.1018 47.146 77.439 45.4966 77.439Z" fill="#F7F7F7"/>
<path d="M48.483 70.5512V74.453C48.483 76.1021 47.1453 77.4397 45.4962 77.4397H40.6914C42.3429 77.4397 43.6781 76.1021 43.6781 74.453V70.5512C43.6781 68.9021 42.3429 67.5645 40.6914 67.5645H45.4962C47.1453 67.5645 48.483 68.9021 48.483 70.5512Z" fill="#F1F1F1"/>
<path d="M36.3566 27.0799H24.8163C22.9977 27.0799 21.5234 25.6056 21.5234 23.787C21.5234 21.9684 22.9977 20.4941 24.8163 20.4941H36.3566C38.1752 20.4941 39.6495 21.9684 39.6495 23.787C39.6495 25.6056 38.1752 27.0799 36.3566 27.0799Z" fill="#E25D7D"/>
<path d="M39.6485 23.7875C39.6485 24.6953 39.279 25.5211 38.6851 26.1151C38.0887 26.7114 37.2654 27.0809 36.3575 27.0809H31.4609C32.3712 27.0809 33.1945 26.7114 33.7909 26.1151C34.3873 25.5211 34.7543 24.6953 34.7543 23.7875C34.7543 21.9694 33.2815 20.4941 31.4609 20.4941H36.3575C38.1756 20.4941 39.6485 21.9694 39.6485 23.7875Z" fill="#CE4062"/>
<path d="M69.2781 25.5983H46.3455C45.3452 25.5983 44.5347 24.7877 44.5347 23.7874C44.5347 22.7871 45.3452 21.9766 46.3455 21.9766H69.2781C70.2784 21.9766 71.089 22.7871 71.089 23.7874C71.089 24.7877 70.2784 25.5983 69.2781 25.5983Z" fill="#D1D1D1"/>
<path d="M52.0464 35.8795H37.0223C36.022 35.8795 35.2114 35.069 35.2114 34.0687C35.2114 33.0684 36.022 32.2578 37.0223 32.2578H52.0464C53.0468 32.2578 53.8573 33.0684 53.8573 34.0687C53.8573 35.069 53.0468 35.8795 52.0464 35.8795Z" fill="#D1D1D1"/>
<path d="M28.453 35.8795H23.3343C22.334 35.8795 21.5234 35.069 21.5234 34.0687C21.5234 33.0684 22.334 32.2578 23.3343 32.2578H28.453C29.4533 32.2578 30.2639 33.0684 30.2639 34.0687C30.2639 35.069 29.4533 35.8795 28.453 35.8795Z" fill="#D1D1D1"/>
<path d="M52.0462 43.2624H23.3343C22.334 43.2624 21.5234 42.4518 21.5234 41.4515C21.5234 40.4512 22.334 39.6406 23.3343 39.6406H52.0462C53.0465 39.6406 53.857 40.4512 53.857 41.4515C53.857 42.4518 53.0465 43.2624 52.0462 43.2624Z" fill="#D1D1D1"/>
<path fill-rule="evenodd" clip-rule="evenodd" d="M98.6016 85.6587C99.8947 87.0954 99.7782 89.3085 98.3414 90.6016L85.0081 102.602C84.3153 103.225 83.4025 103.546 82.472 103.495C81.5414 103.443 80.67 103.022 80.0508 102.325L73.3841 94.8253C72.0999 93.3806 72.23 91.1683 73.6748 89.8841C75.1195 88.5999 77.3318 88.73 78.616 90.1748L82.943 95.0426L93.6587 85.3985C95.0954 84.1054 97.3085 84.2219 98.6016 85.6587Z" fill="white"/>
</svg>
