<svg width="1080" height="1080" viewBox="0 0 1080 1080" fill="none" xmlns="http://www.w3.org/2000/svg">
<rect width="1080" height="1080" fill="#698CFF"/>
<path d="M275.571 361.642C272.349 361.642 269.967 360.525 268.426 358.292C266.885 356.058 266.114 353.406 266.114 350.335C266.114 347.264 266.885 344.612 268.426 342.379C269.967 340.145 272.349 339.029 275.571 339.029H337.15C343.875 339.029 348.499 340.285 351.021 342.797C353.683 345.31 355.014 349.847 355.014 356.407V382.161C355.014 388.582 354.664 394.375 353.963 399.54C353.263 404.705 351.932 409.521 349.97 413.987C348.009 418.315 345.346 422.502 341.984 426.55C338.621 430.459 334.208 434.577 328.743 438.904C323.419 443.092 316.904 447.628 309.198 452.514C301.632 457.26 292.665 462.634 282.297 468.636C279.354 470.311 276.342 470.66 273.26 469.683C270.177 468.706 267.795 466.822 266.114 464.03C264.433 461.378 263.662 458.376 263.802 455.026C264.082 451.676 265.834 449.094 269.056 447.279C278.724 441.835 286.92 437.089 293.646 433.041C300.371 428.993 305.905 425.364 310.249 422.153C314.732 418.943 318.165 416.011 320.547 413.359C323.069 410.707 324.96 407.985 326.221 405.193L271.158 408.753C267.935 409.032 265.484 408.125 263.802 406.031C262.261 403.797 261.35 401.076 261.07 397.865C260.79 395.073 261.35 392.421 262.751 389.908C264.152 387.396 266.464 386.07 269.687 385.93L328.954 383.627V366.458C328.954 363.247 327.342 361.642 324.12 361.642H275.571ZM390.742 410.637H344.296V388.024H390.742V336.307C390.742 332.398 392.073 329.537 394.735 327.722C397.538 325.907 400.69 325 404.193 325C407.555 325 410.568 325.907 413.23 327.722C416.032 329.537 417.433 332.398 417.433 336.307V496.693C417.433 500.602 416.032 503.463 413.23 505.278C410.568 507.093 407.555 508 404.193 508C400.69 508 397.538 507.093 394.735 505.278C392.073 503.463 390.742 500.602 390.742 496.693V410.637Z" fill="white"/>
<path d="M466.645 360.386C463.422 360.386 461.04 359.269 459.499 357.035C457.958 354.802 457.187 352.15 457.187 349.079C457.187 346.008 457.958 343.356 459.499 341.122C461.04 338.889 463.422 337.772 466.645 337.772H529.274C535.999 337.772 540.623 339.029 543.145 341.541C545.807 344.054 547.138 348.59 547.138 355.151V394.096C547.138 400.657 545.807 405.193 543.145 407.706C540.623 410.219 535.999 411.475 529.274 411.475H488.712C485.49 411.475 483.878 413.08 483.878 416.291V437.019C483.878 440.23 485.49 441.835 488.712 441.835C501.882 441.835 514.002 441.556 525.071 440.998C536.139 440.3 546.788 439.253 557.016 437.857C560.238 437.438 562.76 438.206 564.582 440.16C566.543 442.114 567.664 444.557 567.944 447.489C568.225 450.699 567.804 453.561 566.684 456.073C565.563 458.446 563.461 459.842 560.379 460.261C556.035 460.819 551.201 461.378 545.877 461.936C540.553 462.355 534.458 462.773 527.593 463.192C520.867 463.611 513.161 463.96 504.475 464.239C495.928 464.379 486.19 464.449 475.262 464.449C468.536 464.449 463.843 463.192 461.18 460.68C458.658 458.167 457.397 453.63 457.397 447.07V407.078C457.397 400.517 458.658 395.981 461.18 393.468C463.843 390.955 468.536 389.699 475.262 389.699H515.823C519.046 389.699 520.657 388.094 520.657 384.883V365.201C520.657 361.991 519.046 360.386 515.823 360.386H466.645ZM607.456 496.693C607.456 500.602 606.055 503.463 603.252 505.278C600.59 507.093 597.438 508 593.795 508C590.292 508 587.14 507.093 584.337 505.278C581.675 503.463 580.344 500.602 580.344 496.693V336.307C580.344 332.398 581.675 329.537 584.337 327.722C587.14 325.907 590.292 325 593.795 325C597.438 325 600.59 325.907 603.252 327.722C606.055 329.537 607.456 332.398 607.456 336.307V496.693Z" fill="white"/>
<path d="M642.796 399.331C642.796 378.532 646.929 362.759 655.196 352.01C663.603 341.262 676.142 335.888 692.816 335.888C709.489 335.888 721.959 341.262 730.225 352.01C738.632 362.759 742.835 378.532 742.835 399.331C742.835 420.129 738.632 435.903 730.225 446.651C721.959 457.399 709.489 462.773 692.816 462.773C676.142 462.773 663.603 457.399 655.196 446.651C646.929 435.903 642.796 420.129 642.796 399.331ZM716.985 399.331C716.985 386.07 715.163 376.089 711.52 369.389C708.018 362.549 701.783 359.129 692.816 359.129C683.849 359.129 677.544 362.549 673.901 369.389C670.398 376.089 668.647 386.07 668.647 399.331C668.647 412.592 670.398 422.642 673.901 429.482C677.544 436.182 683.849 439.532 692.816 439.532C701.783 439.532 708.018 436.182 711.52 429.482C715.163 422.642 716.985 412.592 716.985 399.331ZM773.309 410.637H726.862V388.024H773.309V336.307C773.309 332.398 774.64 329.537 777.302 327.722C780.104 325.907 783.257 325 786.76 325C790.122 325 793.135 325.907 795.797 327.722C798.599 329.537 800 332.398 800 336.307V496.693C800 500.602 798.599 503.463 795.797 505.278C793.135 507.093 790.122 508 786.76 508C783.257 508 780.104 507.093 777.302 505.278C774.64 503.463 773.309 500.602 773.309 496.693V410.637Z" fill="white"/>
<path d="M298.698 607.053C295.479 607.053 293.87 608.667 293.87 611.895V678C293.87 681.228 295.479 682.842 298.698 682.842C310.594 682.842 321.93 682.561 332.706 682C343.621 681.298 354.188 680.246 364.404 678.842C367.623 678.421 370.142 679.193 371.961 681.158C373.92 683.123 375.04 685.649 375.32 688.737C375.6 691.965 375.18 694.842 374.06 697.368C372.941 699.754 370.841 701.158 367.763 701.579C363.424 702.14 358.596 702.702 353.278 703.263C348.1 703.684 342.152 704.105 335.435 704.526C328.717 704.947 321.16 705.298 312.763 705.579C304.506 705.719 295.199 705.789 284.843 705.789C278.126 705.789 273.438 704.526 270.779 702C268.26 699.474 267 694.912 267 688.316V601.579C267 594.982 268.26 590.421 270.779 587.895C273.438 585.368 278.126 584.105 284.843 584.105H351.179C354.398 584.105 356.777 585.228 358.316 587.474C359.855 589.719 360.625 592.456 360.625 595.684C360.625 598.772 359.855 601.439 358.316 603.684C356.777 605.93 354.398 607.053 351.179 607.053H298.698ZM431.789 632.105C435.147 632.105 437.597 633.228 439.136 635.474C440.675 637.719 441.445 640.456 441.445 643.684C441.445 646.912 440.675 649.719 439.136 652.105C437.597 654.351 435.147 655.474 431.789 655.474H412.056V742.632C412.056 746.561 410.657 749.439 407.858 751.263C405.199 753.088 402.12 754 398.621 754C395.122 754 391.973 753.088 389.175 751.263C386.516 749.439 385.186 746.561 385.186 742.632V581.368C385.186 577.439 386.516 574.561 389.175 572.737C391.973 570.912 395.122 570 398.621 570C402.12 570 405.199 570.912 407.858 572.737C410.657 574.561 412.056 577.439 412.056 581.368V632.105H431.789Z" fill="white"/>
<path d="M457.642 644.737C457.642 623.825 461.84 607.965 470.237 597.158C478.634 586.211 491.299 580.737 508.233 580.737C525.167 580.737 537.832 586.211 546.229 597.158C554.626 607.965 558.824 623.825 558.824 644.737C558.824 665.649 554.626 681.579 546.229 692.526C537.832 703.333 525.167 708.737 508.233 708.737C491.299 708.737 478.634 703.333 470.237 692.526C461.84 681.579 457.642 665.649 457.642 644.737ZM533.004 644.737C533.004 631.404 531.185 621.298 527.546 614.421C523.907 607.544 517.47 604.105 508.233 604.105C498.997 604.105 492.559 607.544 488.92 614.421C485.282 621.298 483.462 631.404 483.462 644.737C483.462 658.07 485.282 668.175 488.92 675.053C492.559 681.93 498.997 685.368 508.233 685.368C517.47 685.368 523.907 681.93 527.546 675.053C531.185 668.175 533.004 658.07 533.004 644.737ZM612.144 742.632C612.144 746.561 610.745 749.439 607.946 751.263C605.287 753.088 602.138 754 598.5 754C595.001 754 591.852 753.088 589.053 751.263C586.394 749.439 585.065 746.561 585.065 742.632V581.368C585.065 577.439 586.394 574.561 589.053 572.737C591.852 570.912 595.001 570 598.5 570C602.138 570 605.287 570.912 607.946 572.737C610.745 574.561 612.144 577.439 612.144 581.368V742.632Z" fill="white"/>
<path d="M682.921 682.211C676.203 682.211 671.515 680.947 668.856 678.421C666.337 675.895 665.078 671.333 665.078 664.737V591.053C665.078 587.263 666.477 584.456 669.276 582.632C672.075 580.667 675.154 579.684 678.513 579.684C681.871 579.684 684.95 580.667 687.749 582.632C690.548 584.456 691.948 587.263 691.948 591.053V611.895H770.458V591.053C770.458 587.263 771.858 584.456 774.657 582.632C777.456 580.667 780.535 579.684 783.893 579.684C787.252 579.684 790.331 580.667 793.13 582.632C795.929 584.456 797.328 587.263 797.328 591.053V664.737C797.328 671.333 795.999 675.895 793.34 678.421C790.821 680.947 786.203 682.211 779.485 682.211H682.921ZM765.63 659.684C768.849 659.684 770.458 658.07 770.458 654.842V634.421H691.948V654.842C691.948 658.07 693.557 659.684 696.776 659.684H765.63ZM651.852 736.737C648.634 736.737 646.255 735.614 644.715 733.368C643.176 731.123 642.406 728.456 642.406 725.368C642.406 722.14 643.176 719.404 644.715 717.158C646.255 714.912 648.634 713.789 651.852 713.789H810.554C813.772 713.789 816.151 714.912 817.691 717.158C819.23 719.404 820 722.14 820 725.368C820 728.456 819.23 731.123 817.691 733.368C816.151 735.614 813.772 736.737 810.554 736.737H651.852Z" fill="white"/>
</svg>
