<svg width="99" height="88" viewBox="0 0 99 88" fill="none" xmlns="http://www.w3.org/2000/svg">
<g clip-path="url(#clip0_3571_36419)">
<path d="M98.9999 3.10747V86.4707C98.9999 87.2787 98.3304 87.9346 97.5038 87.9346H31.845C31.0184 87.9346 30.348 87.2787 30.348 86.4707V3.10747C30.348 2.29871 31.0184 1.64355 31.845 1.64355H97.5038C98.3304 1.64355 98.9999 2.29871 98.9999 3.10747Z" fill="#698CFF" fill-opacity="0.76"/>
<path d="M37.4285 1.64355V87.9346H31.845C31.0184 87.9346 30.348 87.2787 30.348 86.4707V3.10747C30.348 2.29871 31.0184 1.64355 31.845 1.64355H37.4285V1.64355Z" fill="#698CFF"/>
<path d="M58.2228 25.5412V22.585H59.3861V25.5113C59.3861 26.3538 59.8163 26.7901 60.5267 26.7901C61.2371 26.7901 61.6673 26.3692 61.6673 25.5489V22.5857H62.8306V25.5051C62.8306 27.0719 61.9318 27.84 60.5118 27.84C59.0917 27.84 58.2236 27.0643 58.2236 25.542L58.2228 25.5412Z" fill="#FFEDDC"/>
<path d="M63.6533 27.0041L64.341 26.1984C64.8167 26.5824 65.3151 26.8267 65.9196 26.8267C66.3953 26.8267 66.6826 26.6416 66.6826 26.3243C66.6826 26.0363 66.5012 25.8881 65.6173 25.6669C64.5521 25.4011 63.8653 25.1124 63.8653 24.0709C63.8653 23.1323 64.6353 22.5117 65.7155 22.5117C66.4855 22.5117 67.1426 22.7483 67.6795 23.1692L67.075 24.0263C66.6072 23.7083 66.1456 23.5163 65.7005 23.5163C65.2555 23.5163 65.0208 23.716 65.0208 23.9818C65.0208 24.322 65.2476 24.4326 66.1613 24.6615C67.2336 24.9349 67.838 25.312 67.838 26.2283C67.838 27.2552 67.0374 27.832 65.8968 27.832C65.0961 27.832 64.2884 27.5586 63.6533 27.0041V27.0041Z" fill="#FFEDDC"/>
<path d="M68.849 22.5848H72.8367V23.5971H70.0045V24.6462H72.4968V25.6585H70.0045V26.7445H72.8744V27.7568H68.849V22.584V22.5848Z" fill="#FFEDDC"/>
<path d="M73.9091 22.585H76.326C76.998 22.585 77.5192 22.7701 77.8669 23.1095C78.1613 23.3976 78.3199 23.8039 78.3199 24.3069C78.3199 25.1418 77.8591 25.6664 77.1871 25.9106L78.4784 27.7578H77.1188L75.9712 26.1027H75.0724V27.7578H73.9091V22.585V22.585ZM76.2507 25.0973C76.8174 25.0973 77.1416 24.8016 77.1416 24.3507C77.1416 23.863 76.7946 23.6119 76.2279 23.6119H75.0724V25.0973H76.2507V25.0973Z" fill="#FFEDDC"/>
<path d="M51.4633 30.3516H52.7169L54.1063 32.539L55.4957 30.3516H56.7494V35.5244H55.5939V32.1473L54.1063 34.357H54.0757L52.6031 32.1695V35.5244H51.4625V30.3516H51.4633Z" fill="#FFEDDC"/>
<path d="M59.832 30.3135H60.9042L63.1697 35.5232H61.9538L61.4702 34.3627H59.2346L58.751 35.5232H57.5649L59.8304 30.3135H59.832ZM61.0557 33.3581L60.3532 31.6806L59.6506 33.3581H61.0557V33.3581Z" fill="#FFEDDC"/>
<path d="M63.9854 30.3516H65.0576L67.535 33.5367V30.3516H68.6835V35.5244H67.6944L65.1338 32.2356V35.5244H63.9861V30.3516H63.9854Z" fill="#FFEDDC"/>
<path d="M69.8687 33.3068V30.3506H71.032V33.2769C71.032 34.1194 71.4629 34.5557 72.1726 34.5557C72.8822 34.5557 73.3131 34.134 73.3131 33.3137V30.3506H74.4765V33.2692C74.4765 34.836 73.5777 35.6041 72.1576 35.6041C70.7376 35.6041 69.8694 34.8284 69.8694 33.3061L69.8687 33.3068Z" fill="#FFEDDC"/>
<path d="M77.2852 30.3135H78.3575L80.6229 35.5232H79.407L78.9235 34.3627H76.6878L76.2043 35.5232H75.0182L77.2836 30.3135H77.2852ZM78.509 33.3581L77.8064 31.6806L77.1039 33.3581H78.509V33.3581Z" fill="#FFEDDC"/>
<path d="M81.4385 30.3516H82.6018V34.4898H85.2378V35.5244H81.4385V30.3516V30.3516Z" fill="#FFEDDC"/>
<path d="M40.0206 6.51303e-05C40.0206 6.51303e-05 38.263 -0.0368015 38.2034 1.6437H41.8975C41.8975 1.6437 42.2845 0.390238 43.4172 0.821885V6.51303e-05H40.0206V6.51303e-05Z" fill="#7999E2"/>
<path d="M40.0206 0C40.0206 0 43.1487 0.291861 43.268 2.91554C43.3873 5.53922 43.268 10.7866 43.268 10.7866L45.6512 9.91176L47.5579 10.7866V2.7988C47.5579 2.7988 47.3797 0.407838 44.8168 0H40.0198H40.0206Z" fill="#AEC3FF"/>
<path d="M21.4267 87.9346H70.5382C73.954 87.9346 76.723 85.2252 76.723 81.8831V81.6304C76.723 78.2882 73.954 75.5789 70.5382 75.5789H21.4267C18.0109 75.5789 15.2419 78.2882 15.2419 81.6304V81.8831C15.2419 85.2252 18.0109 87.9346 21.4267 87.9346Z" fill="#D02750"/>
<path d="M49.2606 80.1126L49.2166 82.8131C49.1774 85.2017 51.1257 87.1695 53.567 87.2079L86.2072 87.7179L86.2158 87.1795C84.3845 86.2478 83.1481 84.3607 83.1835 82.2048L83.1992 81.2547C83.2345 79.098 84.5321 77.2516 86.3925 76.3768V76.366L53.7523 75.856C51.311 75.8176 49.2999 77.724 49.2606 80.1126V80.1126Z" fill="#FFEDDC"/>
<path d="M87.0613 87.9335H52.6745C50.4569 87.9335 48.719 85.2177 48.719 81.7514C48.719 78.2852 50.4562 75.5693 52.6745 75.5693H87.0613C87.347 75.5693 87.5786 75.7959 87.5786 76.0755C87.5786 76.3551 87.347 76.5816 87.0613 76.5816H52.6745C51.0912 76.5816 49.7536 78.9496 49.7536 81.7522C49.7536 84.5548 51.0912 86.9227 52.6745 86.9227H87.0613C87.347 86.9227 87.5786 87.1493 87.5786 87.4289C87.5786 87.7085 87.347 87.935 87.0613 87.935V87.9335Z" fill="#BB1A41"/>
<path d="M83.7816 78.8652H58.9519V78.9383H83.7816V78.8652Z" fill="#E8C2A3"/>
<path d="M83.3609 79.9902H72.1349V80.0633H83.3609V79.9902Z" fill="#E8C2A3"/>
<path d="M83.3609 83.8271H63.7772V83.9002H83.3609V83.8271Z" fill="#E8C2A3"/>
<path d="M65.3754 78.9014C65.3754 78.9014 66.417 79.3276 66.5411 80.7677C66.6651 82.2078 66.5411 82.9751 66.5411 82.9751L65.2835 82.3899L64.0134 82.9751V80.724C64.0134 80.724 63.9671 78.9014 62.2339 78.9014H65.3754V78.9014Z" fill="#F78248"/>
<path d="M0 84.749C0 84.8819 0.00784979 85.014 0.0251193 85.1422C0.076143 85.5547 0.20645 85.9433 0.400339 86.2928C0.552625 86.5655 0.743375 86.8143 0.966309 87.0317C1.56446 87.6162 2.38869 87.9771 3.30005 87.9771H49.7119C51.5347 87.9771 53.0128 86.5317 53.0128 84.7482C53.0128 83.8565 52.6438 83.0493 52.0457 82.4648C51.4483 81.8795 50.6233 81.5186 49.7119 81.5186H3.30005C1.47733 81.5186 0 82.964 0 84.7482V84.749Z" fill="#E25D7D"/>
<path d="M3.54025 80.9351H19.4533C19.732 80.9351 19.9597 80.7124 19.9597 80.4397C19.9597 80.1671 19.732 79.9443 19.4533 79.9443H3.54025C3.26158 79.9443 3.03394 80.1671 3.03394 80.4397C3.03394 80.7124 3.26158 80.9351 3.54025 80.9351Z" fill="#E25D7D"/>
<path d="M4.41944 81.5195H6.14404V80.9344H4.41944V81.5195Z" fill="#C84B69"/>
<path d="M0.400391 86.2939C0.552677 86.5666 0.743427 86.8155 0.966361 87.0328C1.56451 87.6173 2.38874 87.9783 3.3001 87.9783H13.1312V86.2939H0.400391V86.2939Z" fill="#C84B69"/>
<path d="M59.156 83.803V85.6947C59.156 85.9021 59.1278 86.1033 59.0744 86.2938C58.8059 87.2646 57.9001 87.9781 56.8231 87.9781H8.477C7.40001 87.9781 6.49336 87.2646 6.22568 86.2938C6.17309 86.1033 6.14404 85.9021 6.14404 85.6947V83.803C6.14404 82.5418 7.18807 81.5195 8.477 81.5195H56.8239C58.1128 81.5195 59.1568 82.5418 59.1568 83.803H59.156Z" fill="#F17895"/>
<path d="M59.0752 86.2939C58.8067 87.2648 57.9009 87.9783 56.8239 87.9783H8.47703C7.40004 87.9783 6.49339 87.2648 6.22571 86.2939H59.0752Z" fill="#E25D7D"/>
<path d="M54.3544 84.7607C54.3544 85.7638 54.7272 86.6601 55.3144 87.2538C55.3277 87.2669 55.3403 87.28 55.3536 87.293C55.8074 87.7354 56.3835 88.0004 57.01 88.0004C57.9888 88.0004 60.4144 86.5557 61.9176 85.5964C62.6665 85.1179 63.187 84.76 63.187 84.76C63.187 84.76 62.6665 84.402 61.9176 83.9243C60.4144 82.9642 57.9888 81.5195 57.01 81.5195C56.7266 81.5195 56.4542 81.5741 56.1975 81.6731C55.7658 81.8429 55.3811 82.144 55.0781 82.5372C54.7437 82.9689 54.5059 83.5134 54.4062 84.1179C54.4054 84.1248 54.4038 84.1317 54.4038 84.1386C54.3716 84.3391 54.3544 84.5472 54.3544 84.7607V84.7607Z" fill="#CDE0FB"/>
<path d="M54.3543 84.7608C54.3543 85.7639 54.7272 86.6602 55.3143 87.2539L62.7551 84.7493L54.403 84.1387C54.3708 84.3391 54.3535 84.5473 54.3535 84.7608H54.3543Z" fill="#A6C7ED"/>
<path d="M55.0788 82.5369L62.5015 84.52L56.1974 81.6729C55.7656 81.8426 55.381 82.1437 55.078 82.5369H55.0788Z" fill="#E3F0FF"/>
<path d="M61.4332 84.7604C61.4332 85.146 61.635 85.4747 61.9176 85.5969C62.6664 85.1184 63.1869 84.7604 63.1869 84.7604C63.1869 84.7604 62.6664 84.4025 61.9176 83.9248C61.635 84.0454 61.4332 84.3741 61.4332 84.7604Z" fill="#2E3552"/>
<path d="M12.1013 75.5788H51.0865C52.9916 75.5788 54.5357 74.068 54.5357 72.2039C54.5357 70.3399 52.9916 68.8291 51.0865 68.8291H12.1013C10.1962 68.8291 8.6521 70.3399 8.6521 72.2039C8.6521 74.068 10.1962 75.5788 12.1013 75.5788Z" fill="#E25D7D"/>
<path d="M34.0399 71.3026L34.0069 72.7757C33.9779 74.0784 35.4316 75.1521 37.2536 75.1728L61.613 75.4509L61.6193 75.1575C60.2527 74.649 59.3303 73.6198 59.3562 72.4439L59.368 71.9255C59.3947 70.7488 60.3626 69.7419 61.7512 69.265V69.2588L37.3917 68.9808C35.5698 68.96 34.0689 69.9992 34.0399 71.3026V71.3026Z" fill="#FFEDDC"/>
<path d="M62.2505 75.5693H36.588C34.9325 75.5693 33.6365 74.0877 33.6365 72.1967C33.6365 70.3058 34.9333 68.8242 36.588 68.8242H62.2505C62.4633 68.8242 62.6367 68.9479 62.6367 69.0999C62.6367 69.252 62.464 69.3757 62.2505 69.3757H36.588C35.4066 69.3757 34.4081 70.6675 34.4081 72.196C34.4081 73.7244 35.4066 75.0163 36.588 75.0163H62.2505C62.4633 75.0163 62.6367 75.1399 62.6367 75.292C62.6367 75.4441 62.464 75.5677 62.2505 75.5677V75.5693Z" fill="#E12552"/>
<path d="M59.8021 70.6182H41.2719V70.6651H59.8021V70.6182Z" fill="#E8C2A3"/>
<path d="M59.4889 71.2324H51.1108V71.2793H59.4889V71.2324Z" fill="#E8C2A3"/>
<path d="M59.4889 73.3262H44.8734V73.3731H59.4889V73.3262Z" fill="#E8C2A3"/>
<path d="M61.1683 51.5799H62.4767V44.4284H61.1683V51.5799ZM54.5951 49.8862H58.4155V48.1087H59.232V51.2977H60.5194V44.5853H59.232V47.0005H58.4155V45.3485H54.5951V49.8862ZM55.8825 46.4045H57.1386V48.8302H55.8825V46.4045ZM62.7175 53.8801V52.7823H57.3688V50.7435H55.9872V53.8801H62.7175Z" fill="#FFEDDC"/>
<path d="M71.9171 54.0579V44.418H70.525V54.0579H71.9171ZM65.7835 50.7644V48.9765H68.8817V47.8996H65.7835V46.3313H69.2794V45.2126H64.4018V51.8727H65.2392C66.9767 51.8727 68.3165 51.8204 69.8237 51.6009L69.6981 50.503C68.3897 50.7017 67.2174 50.7644 65.7835 50.7644Z" fill="#FFEDDC"/>
<path d="M79.0233 49.1543H80.1956V51.5172H81.5773V44.418H80.1956V46.1013H79.0233V47.2096H80.1956V48.046H79.0233V49.1543ZM79.0443 50.0221L78.9605 49.0184C78.6779 49.0497 78.3849 49.0706 78.0813 49.102V46.2059H78.8454V45.108H73.7585V46.2059H74.5225V49.2379H73.5177L73.6643 50.3567C75.1715 50.3567 77.2649 50.3253 79.0443 50.0221ZM75.8519 49.2066V46.2059H76.752V49.1857C76.4485 49.1961 76.1449 49.2066 75.8519 49.2066ZM81.7971 53.8801V52.7823H76.6055V50.984H75.2238V53.8801H81.7971Z" fill="#FFEDDC"/>
</g>
<defs>
<clipPath id="clip0_3571_36419">
<rect width="99" height="88" fill="white"/>
</clipPath>
</defs>
</svg>
