<svg width="99" height="88" viewBox="0 0 99 88" fill="none" xmlns="http://www.w3.org/2000/svg">
<g clip-path="url(#clip0_3571_36523)">
<path d="M99.0001 3.10845V86.4717C99.0001 87.2797 98.3305 87.9356 97.5039 87.9356H31.8451C31.0185 87.9356 30.3481 87.2797 30.3481 86.4717V3.10845C30.3481 2.29968 31.0185 1.64453 31.8451 1.64453H97.5039C98.3305 1.64453 99.0001 2.29968 99.0001 3.10845Z" fill="#E25D7D" fill-opacity="0.7"/>
<path d="M37.4287 1.64453V87.9356H31.8451C31.0185 87.9356 30.3481 87.2797 30.3481 86.4717V3.10845C30.3481 2.29968 31.0185 1.64453 31.8451 1.64453H37.4287Z" fill="#E25D7D"/>
<path d="M58.2227 25.5402V22.584H59.386V25.5103C59.386 26.3528 59.8162 26.7891 60.5266 26.7891C61.237 26.7891 61.6671 26.3682 61.6671 25.5479V22.5848H62.8305V25.5041C62.8305 27.071 61.9317 27.839 60.5117 27.839C59.0916 27.839 58.2234 27.0633 58.2234 25.541L58.2227 25.5402Z" fill="#FFEDDC"/>
<path d="M63.6533 27.0041L64.341 26.1984C64.8167 26.5824 65.3151 26.8267 65.9196 26.8267C66.3953 26.8267 66.6826 26.6416 66.6826 26.3243C66.6826 26.0363 66.5012 25.8881 65.6173 25.6669C64.5521 25.4011 63.8653 25.1124 63.8653 24.0709C63.8653 23.1323 64.6353 22.5117 65.7155 22.5117C66.4855 22.5117 67.1426 22.7483 67.6795 23.1692L67.075 24.0263C66.6072 23.7083 66.1456 23.5163 65.7005 23.5163C65.2555 23.5163 65.0208 23.716 65.0208 23.9818C65.0208 24.322 65.2476 24.4326 66.1613 24.6615C67.2336 24.9349 67.838 25.312 67.838 26.2283C67.838 27.2552 67.0374 27.832 65.8968 27.832C65.0961 27.832 64.2884 27.5586 63.6533 27.0041Z" fill="#FFEDDC"/>
<path d="M68.8491 22.5848H72.8368V23.5971H70.0046V24.6462H72.4969V25.6585H70.0046V26.7445H72.8745V27.7568H68.8491V22.584V22.5848Z" fill="#FFEDDC"/>
<path d="M73.9087 22.584H76.3256C76.9976 22.584 77.5188 22.7691 77.8666 23.1086C78.1609 23.3966 78.3195 23.8029 78.3195 24.306C78.3195 25.1408 77.8587 25.6654 77.1868 25.9097L78.4781 27.7568H77.1185L75.9708 26.1017H75.072V27.7568H73.9087V22.584ZM76.2503 25.0963C76.817 25.0963 77.1412 24.8006 77.1412 24.3497C77.1412 23.862 76.7943 23.6109 76.2275 23.6109H75.072V25.0963H76.2503Z" fill="#FFEDDC"/>
<path d="M51.4632 30.3516H52.7168L54.1062 32.539L55.4956 30.3516H56.7492V35.5244H55.5937V32.1473L54.1062 34.357H54.0756L52.603 32.1695V35.5244H51.4624V30.3516H51.4632Z" fill="#FFEDDC"/>
<path d="M59.832 30.3145H60.9042L63.1697 35.5242H61.9538L61.4702 34.3636H59.2346L58.751 35.5242H57.5649L59.8304 30.3145H59.832ZM61.0557 33.359L60.3532 31.6816L59.6506 33.359H61.0557Z" fill="#FFEDDC"/>
<path d="M63.9854 30.3516H65.0576L67.535 33.5367V30.3516H68.6835V35.5244H67.6944L65.1338 32.2356V35.5244H63.9861V30.3516H63.9854Z" fill="#FFEDDC"/>
<path d="M69.8687 33.3078V30.3516H71.032V33.2779C71.032 34.1204 71.4629 34.5567 72.1726 34.5567C72.8822 34.5567 73.3131 34.135 73.3131 33.3147V30.3516H74.4765V33.2702C74.4765 34.837 73.5777 35.6051 72.1576 35.6051C70.7376 35.6051 69.8694 34.8293 69.8694 33.307L69.8687 33.3078Z" fill="#FFEDDC"/>
<path d="M77.2851 30.3145H78.3574L80.6228 35.5242H79.4069L78.9233 34.3636H76.6877L76.2042 35.5242H75.0181L77.2835 30.3145H77.2851ZM78.5089 33.359L77.8063 31.6816L77.1038 33.359H78.5089Z" fill="#FFEDDC"/>
<path d="M81.4385 30.3516H82.6018V34.4898H85.2378V35.5244H81.4385V30.3516Z" fill="#FFEDDC"/>
<path d="M40.0204 6.51303e-05C40.0204 6.51303e-05 38.2628 -0.0368015 38.2031 1.6437H41.8972C41.8972 1.6437 42.2842 0.390237 43.417 0.821885V6.51303e-05H40.0204Z" fill="#F06285"/>
<path d="M40.0208 0C40.0208 0 43.1489 0.291861 43.2683 2.91554C43.3876 5.53922 43.2683 10.7866 43.2683 10.7866L45.6515 9.91176L47.5582 10.7866V2.7988C47.5582 2.7988 47.38 0.407838 44.817 0H40.02H40.0208Z" fill="#FBA9BD"/>
<path d="M21.4264 87.9355H70.5378C73.9536 87.9355 76.7227 85.2262 76.7227 81.884V81.6313C76.7227 78.2892 73.9536 75.5798 70.5378 75.5798H21.4264C18.0106 75.5798 15.2415 78.2892 15.2415 81.6313V81.884C15.2415 85.2262 18.0106 87.9355 21.4264 87.9355Z" fill="#7797FF"/>
<path d="M49.2604 80.1126L49.2164 82.8131C49.1772 85.2017 51.1255 87.1695 53.5668 87.2079L86.207 87.7179L86.2156 87.1795C84.3842 86.2478 83.1479 84.3607 83.1832 82.2048L83.1989 81.2547C83.2343 79.098 84.5318 77.2516 86.3922 76.3768V76.366L53.752 75.856C51.3107 75.8176 49.2996 77.724 49.2604 80.1126Z" fill="#FFEDDC"/>
<path d="M87.0611 87.9345H52.6743C50.4567 87.9345 48.7188 85.2186 48.7188 81.7524C48.7188 78.2862 50.4559 75.5703 52.6743 75.5703H87.0611C87.3468 75.5703 87.5784 75.7969 87.5784 76.0765C87.5784 76.356 87.3468 76.5826 87.0611 76.5826H52.6743C51.091 76.5826 49.7534 78.9505 49.7534 81.7532C49.7534 84.5558 51.091 86.9237 52.6743 86.9237H87.0611C87.3468 86.9237 87.5784 87.1503 87.5784 87.4299C87.5784 87.7094 87.3468 87.936 87.0611 87.936V87.9345Z" fill="#4971F4"/>
<path d="M83.7813 78.8652H58.9517V78.9382H83.7813V78.8652Z" fill="#E8C2A3"/>
<path d="M83.3607 79.9922H72.1348V80.0652H83.3607V79.9922Z" fill="#E8C2A3"/>
<path d="M83.3605 83.8281H63.7769V83.9011H83.3605V83.8281Z" fill="#E8C2A3"/>
<path d="M65.3754 78.9023C65.3754 78.9023 66.417 79.3286 66.5411 80.7687C66.6651 82.2088 66.5411 82.9761 66.5411 82.9761L65.2835 82.3908L64.0134 82.9761V80.7249C64.0134 80.7249 63.9671 78.9023 62.2339 78.9023H65.3754Z" fill="#F78248"/>
<path d="M0 84.748C0 84.8809 0.00784979 85.013 0.0251193 85.1413C0.076143 85.5537 0.20645 85.9424 0.400339 86.2918C0.552625 86.5645 0.743375 86.8133 0.966309 87.0307C1.56446 87.6152 2.38869 87.9762 3.30005 87.9762H49.7119C51.5347 87.9762 53.0128 86.5307 53.0128 84.7473C53.0128 83.8555 52.6438 83.0483 52.0457 82.4638C51.4483 81.8786 50.6233 81.5176 49.7119 81.5176H3.30005C1.47733 81.5176 0 82.9631 0 84.7473V84.748Z" fill="#7E9CFF"/>
<path d="M3.54049 80.9342H19.4536C19.7323 80.9342 19.9599 80.7114 19.9599 80.4388C19.9599 80.1661 19.7323 79.9434 19.4536 79.9434H3.54049C3.26182 79.9434 3.03418 80.1661 3.03418 80.4388C3.03418 80.7114 3.26182 80.9342 3.54049 80.9342Z" fill="#698CFF"/>
<path d="M4.41944 81.5195H6.14404V80.935H4.41944V81.5195Z" fill="#4971F4"/>
<path d="M0.400391 86.293C0.552677 86.5656 0.743427 86.8145 0.966361 87.0318C1.56451 87.6163 2.38874 87.9773 3.3001 87.9773H13.1312V86.293H0.400391Z" fill="#698CFF"/>
<path d="M59.156 83.803V85.6947C59.156 85.9021 59.1278 86.1033 59.0744 86.2938C58.8059 87.2646 57.9001 87.9781 56.8231 87.9781H8.477C7.40001 87.9781 6.49336 87.2646 6.22568 86.2938C6.17309 86.1033 6.14404 85.9021 6.14404 85.6947V83.803C6.14404 82.5418 7.18807 81.5195 8.477 81.5195H56.8239C58.1128 81.5195 59.1568 82.5418 59.1568 83.803H59.156Z" fill="#8DA8FF"/>
<path d="M59.0751 86.293C58.8066 87.2638 57.9008 87.9773 56.8238 87.9773H8.47691C7.39991 87.9773 6.49326 87.2638 6.22559 86.293H59.0751Z" fill="#7998FF"/>
<path d="M54.3545 84.7607C54.3545 85.7638 54.7274 86.6601 55.3145 87.2538C55.3279 87.2669 55.3404 87.28 55.3538 87.293C55.8075 87.7354 56.3837 88.0004 57.0101 88.0004C57.9889 88.0004 60.4145 86.5557 61.9178 85.5964C62.6666 85.1179 63.1871 84.76 63.1871 84.76C63.1871 84.76 62.6666 84.402 61.9178 83.9243C60.4145 82.9642 57.9889 81.5195 57.0101 81.5195C56.7267 81.5195 56.4543 81.5741 56.1976 81.6731C55.7659 81.8429 55.3812 82.144 55.0782 82.5372C54.7438 82.9689 54.506 83.5134 54.4063 84.1179C54.4055 84.1248 54.4039 84.1317 54.4039 84.1386C54.3718 84.3391 54.3545 84.5472 54.3545 84.7607Z" fill="#CDE0FB"/>
<path d="M54.3543 84.7608C54.3543 85.7639 54.7272 86.6602 55.3143 87.2539L62.7551 84.7493L54.403 84.1387C54.3708 84.3391 54.3535 84.5473 54.3535 84.7608H54.3543Z" fill="#A6C7ED"/>
<path d="M55.0789 82.5379L62.5017 84.521L56.1975 81.6738C55.7658 81.8436 55.3811 82.1446 55.0781 82.5379H55.0789Z" fill="#E3F0FF"/>
<path d="M61.4331 84.7614C61.4331 85.147 61.6348 85.4757 61.9174 85.5978C62.6663 85.1193 63.1868 84.7614 63.1868 84.7614C63.1868 84.7614 62.6663 84.4035 61.9174 83.9258C61.6348 84.0464 61.4331 84.3751 61.4331 84.7614Z" fill="#2E3552"/>
<path d="M12.1011 75.5798H51.0863C52.9914 75.5798 54.5355 74.069 54.5355 72.2049C54.5355 70.3408 52.9914 68.8301 51.0863 68.8301H12.1011C10.1959 68.8301 8.65186 70.3408 8.65186 72.2049C8.65186 74.069 10.1959 75.5798 12.1011 75.5798Z" fill="#9AB2FF"/>
<path d="M34.0397 71.3026L34.0068 72.7757C33.9777 74.0784 35.4315 75.1521 37.2534 75.1728L61.6129 75.4509L61.6192 75.1575C60.2526 74.649 59.3302 73.6198 59.3561 72.4439L59.3679 71.9255C59.3946 70.7488 60.3624 69.7419 61.7511 69.265V69.2588L37.3916 68.9808C35.5697 68.96 34.0688 69.9992 34.0397 71.3026Z" fill="#FFEDDC"/>
<path d="M62.2503 75.5693H36.5878C34.9322 75.5693 33.6362 74.0877 33.6362 72.1967C33.6362 70.3058 34.933 68.8242 36.5878 68.8242H62.2503C62.463 68.8242 62.6365 68.9479 62.6365 69.0999C62.6365 69.252 62.4638 69.3757 62.2503 69.3757H36.5878C35.4064 69.3757 34.4079 70.6675 34.4079 72.196C34.4079 73.7244 35.4064 75.0163 36.5878 75.0163H62.2503C62.463 75.0163 62.6365 75.1399 62.6365 75.292C62.6365 75.4441 62.4638 75.5677 62.2503 75.5677V75.5693Z" fill="#698CFF"/>
<path d="M59.8017 70.6191H41.2715V70.666H59.8017V70.6191Z" fill="#E8C2A3"/>
<path d="M59.4884 71.2324H51.1104V71.2793H59.4884V71.2324Z" fill="#E8C2A3"/>
<path d="M59.4886 73.3262H44.873V73.373H59.4886V73.3262Z" fill="#E8C2A3"/>
<path d="M61.1685 51.5799H62.4768V44.4284H61.1685V51.5799ZM54.5952 49.8862H58.4157V48.1087H59.2321V51.2977H60.5195V44.5853H59.2321V47.0005H58.4157V45.3485H54.5952V49.8862ZM55.8827 46.4045H57.1387V48.8302H55.8827V46.4045ZM62.7176 53.8801V52.7823H57.369V50.7435H55.9873V53.8801H62.7176Z" fill="#FFEDDC"/>
<path d="M72.6185 52.9914V51.8727H68.9446V50.273H71.6869V49.1857H66.3174V48.1819H71.3939V47.1155H66.3174V46.1745H71.6137V45.0767H64.9148V50.273H67.563V51.8727H63.8891V52.9914H72.6185Z" fill="#FFEDDC"/>
<path d="M79.0235 49.1543H80.1958V51.5172H81.5774V44.418H80.1958V46.1013H79.0235V47.2096H80.1958V48.046H79.0235V49.1543ZM79.0444 50.0221L78.9607 49.0184C78.6781 49.0497 78.385 49.0706 78.0814 49.102V46.2059H78.8455V45.108H73.7586V46.2059H74.5227V49.2379H73.5178L73.6644 50.3567C75.1716 50.3567 77.265 50.3253 79.0444 50.0221ZM75.852 49.2066V46.2059H76.7521V49.1857C76.4486 49.1961 76.1451 49.2066 75.852 49.2066ZM81.7972 53.8801V52.7823H76.6056V50.984H75.224V53.8801H81.7972Z" fill="#FFEDDC"/>
</g>
<defs>
<clipPath id="clip0_3571_36523">
<rect width="99" height="88" fill="white"/>
</clipPath>
</defs>
</svg>
