<svg width="64" height="64" viewBox="0 0 64 64" fill="none" xmlns="http://www.w3.org/2000/svg">
<mask id="mask0_3571_36576" style="mask-type:alpha" maskUnits="userSpaceOnUse" x="0" y="0" width="64" height="64">
<rect width="64" height="64" fill="#D9D9D9"/>
</mask>
<g mask="url(#mask0_3571_36576)">
<path d="M32.0008 41.868L41.868 32.0008L32.0008 22.1336L29.068 25.068L33.868 29.868L21.9336 29.868L21.9336 34.068L33.868 34.068L29.068 38.9336L32.0008 41.868ZM32.0008 58.2008C28.4008 58.2008 25.0008 57.5117 21.8008 56.1336C18.6008 54.7565 15.8232 52.8786 13.468 50.5C11.1117 48.1224 9.24505 45.3448 7.86799 42.1672C6.48985 38.9896 5.80079 35.6008 5.80079 32.0008C5.80079 28.356 6.48985 24.9448 7.86798 21.7672C9.24505 18.5896 11.1229 15.812 13.5016 13.4344C15.8792 11.0568 18.6568 9.19011 21.8344 7.83438C25.012 6.47864 28.4008 5.80078 32.0008 5.80078C35.6456 5.80078 39.0568 6.48984 42.2344 7.86797C45.412 9.24504 48.1896 11.1117 50.5672 13.468C52.9448 15.8232 54.8114 18.5896 56.1672 21.7672C57.5229 24.9448 58.2008 28.356 58.2008 32.0008C58.2008 35.6008 57.5117 39.0008 56.1336 42.2008C54.7565 45.4008 52.8899 48.1784 50.5336 50.5336C48.1784 52.8898 45.412 54.7565 42.2344 56.1336C39.0568 57.5117 35.6456 58.2008 32.0008 58.2008Z" fill="white"/>
</g>
</svg>
