<svg width="25" height="24" viewBox="0 0 25 24" fill="none" xmlns="http://www.w3.org/2000/svg">
<rect width="25" height="24" fill="#E5E5E5"/>
<g filter="url(#filter0_d_0_1)">
<path d="M-871 -24C-871 -28.4183 -867.418 -32 -863 -32H993C997.418 -32 1001 -28.4183 1001 -24V48C1001 52.4183 997.418 56 993 56H-863C-867.418 56 -871 52.4183 -871 48V-24Z" fill="white" shape-rendering="crispEdges"/>
<rect x="-142.5" y="-12" width="471" height="48" rx="24" fill="#F8F8F8"/>
<g opacity="0.3">
<mask id="mask0_0_1" style="mask-type:alpha" maskUnits="userSpaceOnUse" x="0" y="0" width="25" height="24">
<rect x="0.5" width="24" height="24" fill="#D9D9D9"/>
</mask>
<g mask="url(#mask0_0_1)">
<path d="M11.3 16V14.4444H8.1C7.66 14.4444 7.28347 14.2923 6.9704 13.9879C6.6568 13.683 6.5 13.3167 6.5 12.8889V3.55556C6.5 3.12778 6.6568 2.76144 6.9704 2.45656C7.28347 2.15219 7.66 2 8.1 2H20.9C21.34 2 21.7168 2.15219 22.0304 2.45656C22.3435 2.76144 22.5 3.12778 22.5 3.55556V12.8889C22.5 13.3167 22.3435 13.683 22.0304 13.9879C21.7168 14.2923 21.34 14.4444 20.9 14.4444H17.7V16H11.3ZM8.1 12.8889H20.9V3.55556H8.1V12.8889Z" fill="#698CFF"/>
<rect x="8.09766" y="3.56445" width="12.793" height="9.32764" fill="#698CFF" stroke="white" stroke-linejoin="round"/>
<path d="M7.3 22V20.4444H4.1C3.66 20.4444 3.28347 20.2923 2.9704 19.9879C2.6568 19.683 2.5 19.3167 2.5 18.8889V9.55556C2.5 9.12778 2.6568 8.76144 2.9704 8.45656C3.28347 8.15219 3.66 8 4.1 8H16.9C17.34 8 17.7168 8.15219 18.0304 8.45656C18.3435 8.76144 18.5 9.12778 18.5 9.55556V18.8889C18.5 19.3167 18.3435 19.683 18.0304 19.9879C17.7168 20.2923 17.34 20.4444 16.9 20.4444H13.7V22H7.3ZM4.1 18.8889H16.9V9.55556H4.1V18.8889Z" fill="#7C7C7C"/>
<rect x="4.10352" y="9.55859" width="12.793" height="9.32764" fill="#7C7C7C" stroke="white" stroke-linejoin="round"/>
</g>
</g>
</g>
<defs>
<filter id="filter0_d_0_1" x="-901" y="-52" width="1952" height="168" filterUnits="userSpaceOnUse" color-interpolation-filters="sRGB">
<feFlood flood-opacity="0" result="BackgroundImageFix"/>
<feColorMatrix in="SourceAlpha" type="matrix" values="0 0 0 0 0 0 0 0 0 0 0 0 0 0 0 0 0 0 127 0" result="hardAlpha"/>
<feOffset dx="10" dy="20"/>
<feGaussianBlur stdDeviation="20"/>
<feComposite in2="hardAlpha" operator="out"/>
<feColorMatrix type="matrix" values="0 0 0 0 0.509804 0 0 0 0 0.509804 0 0 0 0 0.509804 0 0 0 0.1 0"/>
<feBlend mode="normal" in2="BackgroundImageFix" result="effect1_dropShadow_0_1"/>
<feBlend mode="normal" in="SourceGraphic" in2="effect1_dropShadow_0_1" result="shape"/>
</filter>
</defs>
</svg>
