<svg width="21" height="21" viewBox="0 0 21 21" fill="none" xmlns="http://www.w3.org/2000/svg">
<path d="M2.83302 2H7.32296L8.77018 5.61803L6.4453 7.16795C6.1671 7.35342 6 7.66565 6 8C6.00254 8.09363 6 8.001 6 8.001L6 8.00205L6.00001 8.00429L6.00004 8.00933L6.00018 8.02167C6.00033 8.03089 6.00058 8.04208 6.00101 8.05519C6.00185 8.0814 6.00338 8.1153 6.00612 8.15636C6.01159 8.23846 6.02191 8.34944 6.0413 8.48517C6.08005 8.75646 6.15527 9.12811 6.30131 9.56623C6.59455 10.4459 7.17073 11.5849 8.29289 12.7071C9.41505 13.8293 10.5541 14.4054 11.4338 14.6987C11.8719 14.8447 12.2435 14.9199 12.5148 14.9587C12.6506 14.9781 12.7615 14.9884 12.8436 14.9939C12.8847 14.9966 12.9186 14.9981 12.9448 14.999C12.9579 14.9994 12.9691 14.9997 12.9783 14.9998L12.9907 15L12.9957 15L12.9979 15L12.999 15C12.999 15 13.1106 14.9939 13 15C13.3788 15 13.725 14.786 13.8944 14.4472L14.5641 13.1078L19 13.8471V18.167C16.8889 18.4723 11.1874 18.7732 6.7071 14.2929C2.2268 9.81259 2.52772 4.1111 2.83302 2ZM8.07364 8.48609L9.87958 7.28213C10.6665 6.75751 10.9784 5.75338 10.6271 4.87525L9.17992 1.25722C8.87619 0.497902 8.14077 0 7.32296 0H2.78077C1.87226 0 1.01708 0.631162 0.86794 1.6169C0.52863 3.8595 0.0667825 10.481 5.29289 15.7071C10.519 20.9332 17.1405 20.4714 19.3831 20.1321C20.3688 19.9829 21 19.1277 21 18.2192V13.8471C21 12.8694 20.2932 12.0351 19.3288 11.8743L14.8929 11.135C14.0269 10.9907 13.1679 11.4281 12.7753 12.2134L12.4288 12.9064C12.3199 12.8796 12.1983 12.8453 12.0662 12.8013C11.4459 12.5946 10.5849 12.1707 9.7071 11.2929C8.82927 10.4151 8.40545 9.55407 8.19868 8.93377C8.14281 8.76616 8.10259 8.61545 8.07364 8.48609Z" fill="#0D0D0D"/>
</svg>
