<svg width="25" height="24" viewBox="0 0 25 24" fill="none" xmlns="http://www.w3.org/2000/svg">
<mask id="mask0_3499_36051" style="mask-type:alpha" maskUnits="userSpaceOnUse" x="0" y="0" width="25" height="24">
<rect x="0.5" width="24" height="24" fill="#D9D9D9"/>
</mask>
<g mask="url(#mask0_3499_36051)">
<path d="M17.3465 8.76289L11.6715 14.4129L8.14648 10.8629L9.54648 9.46289L11.6715 11.5879L15.9215 7.33789L17.3465 8.76289Z" fill="#7C7C7C"/>
<path d="M8.5 21V19H4.5C3.95 19 3.47933 18.8043 3.088 18.413C2.696 18.021 2.5 17.55 2.5 17V5C2.5 4.45 2.696 3.979 3.088 3.587C3.47933 3.19567 3.95 3 4.5 3H20.5C21.05 3 21.521 3.19567 21.913 3.587C22.3043 3.979 22.5 4.45 22.5 5V17C22.5 17.55 22.3043 18.021 21.913 18.413C21.521 18.8043 21.05 19 20.5 19H16.5V21H8.5ZM4.5 17H20.5V5H4.5V17Z" fill="#7C7C7C"/>
</g>
</svg>
