<svg width="13" height="12" viewBox="0 0 13 12" fill="none" xmlns="http://www.w3.org/2000/svg">
<path d="M12.5 5.66669C12.5023 6.5466 12.2967 7.41461 11.9 8.20002C11.4296 9.14118 10.7065 9.9328 9.81163 10.4862C8.91677 11.0396 7.88549 11.3329 6.83333 11.3334C5.95342 11.3356 5.08541 11.1301 4.3 10.7334L0.5 12L1.76667 8.20002C1.36995 7.41461 1.16437 6.5466 1.16667 5.66669C1.16707 4.61452 1.46041 3.58325 2.01381 2.68839C2.56722 1.79352 3.35884 1.0704 4.3 0.600019C5.08541 0.203306 5.95342 -0.00227518 6.83333 1.89921e-05H7.16667C8.55623 0.0766802 9.86869 0.663193 10.8528 1.64726C11.8368 2.63132 12.4233 3.94379 12.5 5.33335V5.66669Z" fill="white"/>
</svg>
